<?xml version="1.0" encoding="utf-8"?>
<!-- Generator: Adobe Illustrator 27.4.1, SVG Export Plug-In . SVG Version: 6.00 Build 0)  -->
<svg version="1.1" id="marley" xmlns="http://www.w3.org/2000/svg" xmlns:xlink="http://www.w3.org/1999/xlink" x="0px" y="0px"
	 viewBox="0 0 101.6 185.6" style="enable-background:new 0 0 101.6 185.6;" xml:space="preserve">
<style type="text/css">
	.st0{fill:#231F20;}
	.st1{fill:#BCBEBF;}
	.st2{fill:#46494A;}
</style>
<path id="hair" class="st0" d="M81.4,83.2c-0.3,8.8,0,17.5-0.2,26.3c0,1.1-0.6,2.2-1.5,2.8c-2.5,1.8-3.7-0.5-4.4-4.5
	c-0.4-2.3,0.3-3.4-0.8-5.1c0.1,7.2,1.9,14.6,2.1,22.3c0,0,0,0,0,0.1c0.1,0.4,0.1,0.8,0.2,1.2c0,0,0,0.1,0,0.1c0,0.4,0,0.8,0,1.1
	c0,0.5-0.1,1.2-0.2,1.7c-0.8,4.1-0.3,8.3-0.5,12.5c-0.2,2.9,0.1,5.9-2.9,7.7c-0.1,0-0.2,0.1-0.2,0.1c-4.3,0.9-5.2-2-5.7-5.3
	c0,0,0,0,0-0.1c-0.2-2.1-0.5-4.2-0.7-6.3c0-0.8,0.1-1.7,0.2-2.5c0,0,0-0.1,0-0.1c0.4-13.2,0.2-26.4,0.1-39.6c0,0,0,0,0-0.1
	c-0.1-0.8-0.2-1.6-0.3-2.3c0,0,0,0,0-0.1c-0.1-1.5,0.2-3,0.5-4.5c0.3-2.4,0.3-4.9,0.1-7.4c-0.1-0.8-0.2-1.6-0.4-2.5
	c-0.1-0.3,0-0.6,0.1-0.9c0.1-0.2,0.1-0.6-0.3-0.7c0,0-1.3-0.4-0.9,0.9c0.1,0.2,0,0.4-0.2,0.6C55.8,89.5,51.4,90,39.5,82.5
	c-1.1-0.7-2.1-1.4-3.4-1.2c-0.2,0-0.3,0.1-0.4,0.3c-3,4,0.5,7.7,0.5,11.5c0,0.1,0,0.1,0,0.2c-0.2,0.7-0.4,1.4-0.7,2.1
	c0,0.1,0,0.1,0,0.2C34,108.7,34.9,121.8,35,135c0,0.1,0,0.1,0,0.2c0.2,0.8,0.4,1.6,0.5,2.5c0.1,1.3,0.1,2.6-0.2,3.9c0,0,0,0.1,0,0.1
	c-1.2,3.4-0.4,8.7-6.6,7.8c-0.1,0-0.3-0.1-0.4-0.2c-4.4-3.9-2.2-9.2-2.8-13.9c0-2.1,0-4.2,0.1-6.4c0-1.2,0-2.3,0.1-3.5c0,0,0,0,0,0
	c0.6-5.3,0.7-10.4-4.7-13.6c-0.2-0.1-0.3-0.3-0.3-0.4c-0.1-0.7-0.2-1.4-0.1-2.1c0-8.4,0-16.8-0.1-25.2c0.3,9.3-2.6,17-2.1,26.3
	c0,0.1,0,0.1,0,0.2c1.7,4.7,3.9,11.1,2.7,15.8c0,0.1-0.1,0.2-0.1,0.2c-2.3,3.2-4.6,3.2-7,0.2c-0.1-0.1-0.1-0.2-0.1-0.3
	c-2.2-11.5-0.5-23.1-1-34.7c-0.1-1.3,1.6-3.5-0.8-4.2c-0.3-0.1-0.4-0.3-0.4-0.6c-0.7-18.4-0.8-36.9,0.1-55.3l0,0
	C14.1,9.9,43.9-8.9,68.8,4.5c15.9,8.6,22.1,21,22.7,37.4c0.6,15.8,0.2,31.7,0.2,47.5c0,0.1,0,0.2,0.1,0.4c0.7,1.1-0.1,1.5-0.9,2
	c-0.5,0.3-1,0.7-1.4,1.1c-0.1,0.1-0.1,0.2-0.1,0.4c-0.6,8.6,0,17.2-0.3,25.8c-0.1,3.3,0.6,6.8-2.4,9.4c-0.1,0.1-0.2,0.1-0.3,0.1
	c-4.1,1-5.7-1.4-6.2-5c0,0,0-0.1,0-0.1c-0.6-4.8,0.2-9.7,2.2-14.1c0.9-2.1,1.9-4.3,2-4.7"/>
<path id="face" class="st1" d="M67.6,70.1c-13.3,11.4-21.4,10.8-33.2,0.2c-1.7-12.8-1-25.6-0.4-38.4c0.6-3.4,1-6.8,1.8-10.1
	C37.7,13.9,42.5,9.5,51,9.7c8.9,0.2,13,3.3,15.6,12.8c0.8,3,1,6.2,1.5,9.4C68.6,44.6,69.4,57.4,67.6,70.1z"/>
<path id="stache" class="st2" d="M40.6,64.5c1.5-6.2,4.2-9.7,9.5-10.2c5.9-0.6,8.7,3.3,11.5,9.5C51,55.5,50.4,55.5,40.6,64.5z"/>
</svg>
