<?xml version="1.0" encoding="UTF-8"?>
<svg xmlns="http://www.w3.org/2000/svg" viewBox="0 0 352.67 352.65">
  <defs>
    <style>
      .cls-1, .cls-2 {
        fill: #fff;
      }

      .cls-3 {
        fill: #e8414b;
      }

      .cls-4 {
        fill: #571e3a;
      }

      .cls-5 {
        fill: #622b43;
        mix-blend-mode: multiply;
      }

      .cls-5, .cls-2 {
        opacity: .7;
      }

      .cls-6 {
        isolation: isolate;
      }
    </style>
  </defs>
  <g class="cls-6">
    <g id="Layer_2" data-name="Layer 2">
      <g id="Capa_1" data-name="Capa 1">
        <g id="Disc">
          <path class="cls-4" d="m176.34,0h-.75C78.55.41,0,79.18,0,176.32c0,24.25,4.9,47.35,13.75,68.37,26.71,63.44,89.46,107.96,162.58,107.96,97.38,0,176.34-78.94,176.34-176.34S273.72,0,176.34,0Zm0,156.92c10.72,0,19.42,8.69,19.42,19.4s-8.69,19.42-19.42,19.42-19.4-8.69-19.4-19.42,8.67-19.4,19.4-19.4Z"/>
          <path class="cls-2" d="m176.34,153.47c-12.62,0-22.85,10.23-22.85,22.85s10.23,22.87,22.85,22.87,22.85-10.25,22.85-22.87-10.23-22.85-22.85-22.85Zm0,42.27c-10.73,0-19.4-8.69-19.4-19.42s8.67-19.4,19.4-19.4,19.42,8.69,19.42,19.4-8.69,19.42-19.42,19.42Z"/>
          <path class="cls-3" d="m176.33,124.83c-27.86,0-50.46,22.59-50.46,50.46s22.59,50.47,50.46,50.47,50.47-22.59,50.47-50.47-22.59-50.46-50.47-50.46Zm0,56.91c-3.56,0-6.44-2.88-6.44-6.45s2.89-6.44,6.44-6.44,6.45,2.89,6.45,6.44-2.88,6.45-6.45,6.45Z"/>
          <g>
            <g>
              <path class="cls-1" d="m184.11,148.89c3.27.93,6.3,2.42,8.99,4.37-.07-.27-.14-.53-.22-.8-2.67-1.85-5.67-3.26-8.88-4.14.04.19.07.38.11.56Z"/>
              <path class="cls-1" d="m147.8,176.31c0-15.38,12.23-27.92,27.47-28.48-.03-.17-.06-.34-.1-.5-15.48.61-27.89,13.36-27.89,28.98,0,10.94,6.08,20.48,15.02,25.44.24-.06.48-.13.73-.19-9.05-4.79-15.24-14.31-15.24-25.25Z"/>
            </g>
            <g>
              <path class="cls-1" d="m196.63,211.95c3.91-2.25,7.43-5.11,10.41-8.47-.05-.19-.11-.38-.16-.58-2.95,3.38-6.45,6.27-10.35,8.53.04.17.07.35.11.52Z"/>
              <path class="cls-1" d="m188.61,214.94c-3.88,1.24-8,1.93-12.28,1.93-7.03,0-13.65-1.81-19.42-4.98-.23.06-.45.12-.68.18,5.95,3.36,12.79,5.3,20.1,5.3,4.32,0,8.48-.69,12.39-1.93-.03-.17-.07-.33-.1-.5Z"/>
              <path class="cls-1" d="m173,135.96c-.03-.17-.06-.34-.1-.5-10.65.89-20.14,5.86-26.93,13.35,0,.25,0,.51,0,.76,6.74-7.64,16.29-12.73,27.03-13.61Z"/>
              <path class="cls-1" d="m137.3,163.73c-1.28,3.97-1.99,8.19-1.99,12.58,0,3.65.53,7.18,1.43,10.55.02-.61.03-1.21.05-1.82-.62-2.82-.97-5.73-.97-8.74,0-3.66.53-7.19,1.44-10.56.01-.67.02-1.34.04-2.01Z"/>
              <path class="cls-1" d="m181.67,136.18c2.5.34,4.95.88,7.29,1.65-.05-.2-.11-.4-.16-.6-2.33-.74-4.75-1.26-7.23-1.58.03.18.07.35.1.53Z"/>
              <path class="cls-1" d="m198.64,141.91c.06.24.13.47.19.71,10.87,7.27,18.05,19.65,18.05,33.68,0,4.27-.69,8.36-1.93,12.22.19-.05.39-.09.58-.14,1.19-3.82,1.86-7.87,1.86-12.08,0-14.4-7.48-27.07-18.76-34.39Z"/>
            </g>
            <g>
              <path class="cls-1" d="m179.17,123.13c2.05.12,4.08.31,6.07.64-.05-.18-.1-.36-.14-.55-1.97-.33-3.99-.51-6.02-.61.03.17.07.35.1.52Z"/>
              <path class="cls-1" d="m170.57,122.82c-2.56.28-5.08.71-7.52,1.33-.19.23-.37.45-.56.68,2.65-.71,5.38-1.2,8.17-1.5-.03-.17-.06-.34-.09-.51Z"/>
              <path class="cls-1" d="m229.45,185.02c.46-2.84.74-5.75.74-8.72,0-9.75-2.62-18.9-7.18-26.79-.39-.32-.76-.65-1.15-.96,4.96,8.09,7.83,17.6,7.83,27.76,0,3.01-.27,5.97-.75,8.85.18-.04.35-.09.53-.13Z"/>
              <path class="cls-1" d="m227.08,194.27c-.19.05-.38.09-.57.14-2.07,5.72-5.09,10.98-8.86,15.6.06.2.11.4.17.6,3.99-4.81,7.13-10.34,9.27-16.34Z"/>
              <path class="cls-1" d="m199.29,225c4.23-2,8.16-4.54,11.7-7.53-.05-.18-.1-.36-.15-.54-3.52,3-7.44,5.54-11.66,7.55.03.17.07.34.1.51Z"/>
              <path class="cls-1" d="m191.18,227.52c-4.72,1.37-9.7,2.13-14.85,2.13-8.54,0-16.61-2.03-23.77-5.62.36.36.71.72,1.07,1.08,6.9,3.23,14.6,5.05,22.71,5.05,5.19,0,10.2-.76,14.96-2.14-.03-.17-.07-.33-.1-.5Z"/>
              <path class="cls-1" d="m128.09,198.96c-3.24-6.88-5.06-14.56-5.06-22.67,0-.48.02-.96.04-1.43-.18.23-.35.46-.53.69,0,.25-.02.49-.02.74,0,7.67,1.62,14.97,4.52,21.58.35.36.7.72,1.05,1.08Z"/>
              <path class="cls-1" d="m137.67,139.69c0-.24,0-.49,0-.73-5.05,5.23-9.08,11.45-11.7,18.37.38-.49.75-.98,1.12-1.46,2.52-6.04,6.13-11.5,10.56-16.17Z"/>
            </g>
            <g>
              <path class="cls-1" d="m190.81,112.56c20.26,4.6,36.99,18.57,45.3,37.13.31.26.61.52.91.78-8.25-19.28-25.46-33.84-46.36-38.49.05.19.1.38.15.57Z"/>
              <path class="cls-1" d="m110.93,177.08c0-.26-.02-.52-.02-.79,0-21.66,10.6-40.87,26.87-52.77,0-.21,0-.42,0-.63-16.57,11.98-27.38,31.44-27.38,53.4,0,.48.03.96.04,1.44.16-.22.33-.44.49-.66Z"/>
              <path class="cls-1" d="m146.15,118.3c4.85-2.53,10.05-4.47,15.52-5.73.18-.21.36-.43.53-.64-5.66,1.24-11.04,3.21-16.05,5.8,0,.19,0,.38,0,.57Z"/>
              <path class="cls-1" d="m242.03,182.04c.17-1.9.27-3.81.27-5.75,0-3.7-.32-7.33-.91-10.87-.2-.18-.41-.37-.61-.55.66,3.71,1.02,7.52,1.02,11.42,0,1.98-.11,3.94-.28,5.87.17-.04.35-.08.52-.12Z"/>
              <path class="cls-1" d="m240.62,191.04c-.18.04-.37.09-.55.13-2.95,12.6-9.52,23.81-18.58,32.46.05.18.1.37.15.55,9.29-8.8,16.02-20.26,18.98-33.14Z"/>
              <path class="cls-1" d="m193.61,239.39c-5.51,1.52-11.3,2.37-17.29,2.37-2.22,0-4.41-.12-6.57-.34.19.19.38.38.57.57,1.97.18,3.97.27,5.99.27,6.03,0,11.85-.86,17.39-2.38-.03-.17-.07-.33-.1-.5Z"/>
              <path class="cls-1" d="m201.76,237.15c4.53-1.91,8.81-4.29,12.77-7.11-.05-.17-.1-.35-.15-.52-3.94,2.82-8.21,5.22-12.73,7.12.03.17.07.34.1.51Z"/>
              <path class="cls-1" d="m114.17,196.65c-.27-.28-.53-.55-.8-.83,1.88,6.07,4.63,11.75,8.08,16.93.17-.05.35-.1.52-.14-3.28-4.9-5.93-10.25-7.79-15.96Z"/>
              <path class="cls-1" d="m135.32,227.86c0-.21.02-.42.02-.63-2.8-2.26-5.43-4.73-7.82-7.42-.18.05-.37.1-.55.15,2.54,2.87,5.35,5.5,8.34,7.9Z"/>
              <path class="cls-1" d="m143.68,232.98c0,.19-.02.38-.03.58,3.68,2.12,7.59,3.89,11.68,5.27-.27-.27-.53-.54-.8-.81-3.79-1.35-7.42-3.05-10.86-5.04Z"/>
            </g>
            <g>
              <path class="cls-1" d="m245.45,136.21c0-.33,0-.66,0-.99-5.18-8.65-11.91-16.27-19.85-22.43-.31-.02-.62-.04-.93-.06,8.38,6.37,15.46,14.36,20.79,23.48Z"/>
              <path class="cls-1" d="m253.93,155.16c0,.61-.02,1.22-.03,1.84.82,3.27,1.45,6.62,1.85,10.03.19.17.39.35.58.52-.47-4.3-1.28-8.49-2.4-12.55,0,.05,0,.11,0,.16Z"/>
              <path class="cls-1" d="m186.81,97.1c7.77,1.02,15.19,3.17,22.1,6.26.46.02.92.05,1.39.08-7.34-3.43-15.28-5.8-23.62-6.87.05.18.09.36.13.54Z"/>
              <path class="cls-1" d="m96.78,166.64c.06.06.12.13.19.19,2.78-23.47,15.79-43.81,34.42-56.53-.31,0-.63,0-.94.01-18.12,12.63-30.81,32.51-33.83,55.41.06.3.11.61.17.91Z"/>
              <path class="cls-1" d="m196.52,253.63c-4,1.04-8.11,1.82-12.32,2.24.15.15.31.31.46.46,4.09-.43,8.08-1.18,11.97-2.19-.03-.17-.07-.34-.1-.5Z"/>
              <path class="cls-1" d="m134.6,245.03c0-.19.02-.39.03-.58-8.66-5.33-16.26-12.22-22.33-20.35-.17.05-.34.1-.51.14,6.18,8.32,13.95,15.37,22.81,20.78Z"/>
              <path class="cls-1" d="m168.05,255.83c-.68.09-1.36.19-2.05.28,2.35.3,4.72.52,7.13.61-.18-.18-.36-.36-.54-.54-1.53-.07-3.04-.2-4.54-.35Z"/>
              <path class="cls-1" d="m242.29,222.21c.02-.31.05-.62.07-.92-4.61,6.72-10.21,12.71-16.59,17.76.05.17.09.35.14.52,6.28-4.94,11.79-10.8,16.37-17.35Z"/>
            </g>
            <g>
              <path class="cls-1" d="m253.71,122.8c9.23,13.3,15.13,29.07,16.46,46.11.16-.2.31-.4.46-.6-1.44-17.17-7.51-33.04-16.94-46.38,0,.29,0,.58.01.88Z"/>
              <path class="cls-1" d="m196.7,84.44c15.52,3.44,29.61,10.73,41.22,20.79.29.02.57.05.86.07-11.71-10.29-25.96-17.76-41.7-21.3-.13.14-.25.29-.38.44Z"/>
              <path class="cls-1" d="m163.35,82.6c-5.99.82-11.81,2.2-17.39,4.1,0,.18,0,.35,0,.53,5.61-1.91,11.45-3.31,17.47-4.14-.03-.16-.06-.33-.09-.49Z"/>
              <path class="cls-1" d="m118.5,102.16c4.82-3.76,9.99-7.1,15.49-9.88-.19-.1-.37-.19-.56-.28-5.61,2.87-10.89,6.3-15.79,10.18.28,0,.57-.01.85-.02Z"/>
              <path class="cls-1" d="m91.21,136.22c4.48-9.46,10.48-18.06,17.7-25.48-.24,0-.48.02-.72.02-6.94,7.21-12.73,15.52-17.13,24.63.05.27.1.55.15.82Z"/>
              <path class="cls-1" d="m83.12,189.25c-.59-4.24-.9-8.57-.9-12.97,0-3.97.26-7.87.74-11.71-.15-.15-.3-.31-.45-.46-.52,3.99-.79,8.05-.79,12.17s.27,8.03.76,11.95c.22.34.43.68.65,1.02Z"/>
              <path class="cls-1" d="m176.3,270.46c-12.02,0-23.5-2.31-34.07-6.45,0,.19-.02.37-.03.56,10.59,4.12,22.08,6.41,34.1,6.41,3.58,0,7.1-.24,10.57-.63-.16-.16-.32-.31-.48-.47-3.32.36-6.68.59-10.09.59Z"/>
              <path class="cls-1" d="m249.63,235.3c-.02.26-.04.51-.06.77,10.37-12.68,17.58-28.04,20.25-44.92-.15-.13-.3-.27-.44-.4-2.58,16.7-9.58,31.96-19.75,44.56Z"/>
              <path class="cls-1" d="m238.04,247.31c-2.63,2.29-5.38,4.45-8.25,6.44.05.17.09.34.14.51,3.13-2.16,6.11-4.53,8.96-7.04-.28.03-.56.06-.84.09Z"/>
              <path class="cls-1" d="m207.55,265.63c5.18-1.82,10.16-4.05,14.88-6.7-.04-.17-.09-.33-.13-.5-4.71,2.65-9.68,4.9-14.85,6.72.03.16.06.32.1.48Z"/>
            </g>
            <g>
              <path class="cls-1" d="m179.44,67.07c6.62.19,13.09.95,19.37,2.26.13-.15.26-.29.39-.44-6.44-1.37-13.09-2.15-19.88-2.33.04.17.08.34.12.51Z"/>
              <path class="cls-1" d="m160.78,68.15c-.03-.17-.06-.33-.09-.5-5.11.73-10.1,1.81-14.95,3.22,0,.18,0,.35,0,.53,4.88-1.42,9.9-2.52,15.03-3.25Z"/>
              <path class="cls-1" d="m137.38,74.2c0-.18,0-.35,0-.53-3.93,1.5-7.77,3.19-11.47,5.11.19.09.38.19.57.28,3.53-1.82,7.18-3.43,10.91-4.86Z"/>
              <path class="cls-1" d="m281.64,146.92c.49,1.75.95,3.51,1.35,5.3.13-.17.27-.35.4-.52-.72-3.15-1.59-6.25-2.58-9.3.27,1.51.56,3.01.83,4.52Z"/>
              <path class="cls-1" d="m253.15,97.92c0,.24.01.48.02.72,2.77,2.73,5.39,5.61,7.85,8.62.23.02.47.04.7.07-2.67-3.3-5.54-6.44-8.57-9.41Z"/>
              <path class="cls-1" d="m244.5,90.28c-10.61-8.43-22.81-14.93-36.08-19-.13.14-.25.28-.38.42,13.43,4.08,25.77,10.69,36.48,19.25,0-.23-.01-.45-.02-.68Z"/>
              <path class="cls-1" d="m286,170.36c-.14-2.52-.35-5.02-.65-7.5-.15.19-.29.38-.44.57.1.82.16,1.64.23,2.46.28,1.49.57,2.98.85,4.46Z"/>
              <path class="cls-1" d="m282.89,203.04c-.14-.13-.29-.26-.43-.39-2.96,11.91-7.9,23.04-14.41,33.05.21-.02.43-.05.64-.07,6.39-9.9,11.25-20.86,14.2-32.6Z"/>
              <path class="cls-1" d="m247.45,259.2c-.02.24-.05.48-.07.71,5.38-4.58,10.32-9.64,14.74-15.16-.23.02-.46.05-.7.07-4.21,5.21-8.9,10.01-13.97,14.37Z"/>
              <path class="cls-1" d="m210.61,280.64c5.48-1.81,10.76-4.07,15.82-6.68-.04-.17-.09-.34-.13-.51-5.05,2.61-10.32,4.86-15.79,6.67.03.17.07.34.1.51Z"/>
              <path class="cls-1" d="m199.86,283.09c-4.51.99-9.12,1.72-13.82,2.14-.16.18-.32.37-.48.55,5.01-.42,9.92-1.2,14.72-2.27-.14-.14-.29-.28-.43-.42Z"/>
              <path class="cls-1" d="m94.72,102.94c.24,0,.47-.02.71-.03,6.54-7.2,14.02-13.54,22.26-18.8-.18-.09-.35-.18-.53-.26-8.31,5.34-15.85,11.78-22.44,19.09Z"/>
              <path class="cls-1" d="m80.33,123.06c-3.28,5.87-6.04,12.05-8.2,18.52.13.14.27.27.4.41,2.1-6.32,4.78-12.37,7.95-18.12-.05-.27-.1-.54-.15-.81Z"/>
              <path class="cls-1" d="m66.58,178.93c.37,15.6,3.92,30.65,10.42,44.39.13-.18.27-.37.4-.55-6.18-13.12-9.8-27.67-10.29-43-.18-.28-.36-.56-.53-.84Z"/>
              <path class="cls-1" d="m67.63,164.96c.48-4.64,1.22-9.2,2.27-13.64-.14-.14-.28-.28-.42-.42-1.04,4.36-1.79,8.83-2.29,13.38.15.23.3.46.44.69Z"/>
              <path class="cls-1" d="m141.42,280.13c.11.16.22.32.33.48,10.35,3.41,21.25,5.3,32.44,5.51.14-.17.29-.33.44-.5-11.59-.18-22.74-2.18-33.2-5.72,0,.07,0,.15-.01.22Z"/>
              <path class="cls-1" d="m82.84,232.82c-.19.06-.38.12-.57.18,4.55,7.54,9.99,14.6,16.37,20.99,1.11,1.11,2.25,2.2,3.4,3.26.27-.04.53-.08.8-.13-7.77-7.08-14.51-15.26-19.99-24.29Z"/>
              <path class="cls-1" d="m115.71,267.92c3.83,2.55,7.79,4.87,11.89,6.9-.23-.34-.46-.67-.69-1.01-3.93-2-7.72-4.25-11.36-6.71.05.27.1.55.15.82Z"/>
            </g>
            <g>
              <path class="cls-1" d="m209.76,57.25c-8.05-2.26-16.44-3.74-25.06-4.33-.51.14-1.01.29-1.52.43,9.02.5,17.78,1.97,26.19,4.32.13-.14.26-.28.39-.42Z"/>
              <path class="cls-1" d="m273.59,100.9c2.09,2.68,4.07,5.45,5.93,8.31.22.02.43.05.65.08-2.1-3.24-4.37-6.37-6.75-9.39.06.34.11.67.17,1.01Z"/>
              <path class="cls-1" d="m243.98,72.89c-7.89-5.18-16.39-9.5-25.39-12.79-.13.14-.25.27-.38.4,9.16,3.32,17.79,7.71,25.79,13,0-.2-.01-.41-.02-.61Z"/>
              <path class="cls-1" d="m263.09,89.05c-.05-.28-.09-.56-.14-.84-3.28-3.23-6.74-6.28-10.36-9.13,0,.22.01.43.02.65,3.67,2.91,7.16,6.02,10.48,9.32Z"/>
              <path class="cls-1" d="m293.57,138.47c.12-.16.25-.32.37-.48-2.23-6.81-5.03-13.36-8.36-19.6-.21-.02-.42-.05-.63-.07,3.44,6.41,6.34,13.14,8.61,20.16Z"/>
              <path class="cls-1" d="m300.01,177.36c-.17.04-.34.08-.51.12-.09,9.03-1.16,17.83-3.1,26.31.14.13.29.26.43.39,2-8.63,3.1-17.6,3.18-26.81Z"/>
              <path class="cls-1" d="m296.74,148c-.13.17-.27.35-.4.52,1.53,6.6,2.53,13.39,2.96,20.34.17-.04.33-.07.5-.11-.44-7.09-1.48-14.02-3.06-20.75Z"/>
              <path class="cls-1" d="m83.81,95.14c5.8-6.61,12.28-12.62,19.37-17.86-.18-.08-.36-.16-.53-.24-6.92,5.15-13.25,11.02-18.94,17.47.04.21.08.42.11.63Z"/>
              <path class="cls-1" d="m61.77,131.08c2.59-6.53,5.72-12.78,9.34-18.71-.19.01-.39.02-.58.03-3.52,5.81-6.58,11.93-9.12,18.31.12.12.24.25.36.37Z"/>
              <path class="cls-1" d="m54.27,159.94c-.14-.21-.28-.43-.42-.64-.77,5.55-1.18,11.21-1.18,16.96,0,18.79,4.18,36.93,12.05,53.38.19-.06.37-.12.56-.18-7.74-16.11-12.1-34.15-12.1-53.2,0-5.53.39-10.98,1.1-16.32Z"/>
              <path class="cls-1" d="m56.5,147.82c.63-2.67,1.34-5.31,2.15-7.91-.13-.13-.27-.27-.4-.4-.79,2.55-1.49,5.13-2.13,7.74.13.19.25.38.38.57Z"/>
              <path class="cls-1" d="m118.85,285.14c.05.25.09.51.14.76,4.34,2.28,8.81,4.3,13.39,6.04.01-.21.02-.41.03-.62-4.67-1.79-9.19-3.86-13.56-6.18Z"/>
              <path class="cls-1" d="m109.31,279.55c-5.72-3.73-11.12-7.92-16.13-12.52-.25.04-.49.08-.74.12,5.33,4.94,11.03,9.36,17.02,13.24-.05-.28-.1-.56-.15-.83Z"/>
              <path class="cls-1" d="m72.62,243.74c3.71,5.69,7.92,11.1,12.59,16.19.24-.04.48-.08.72-.12-4.76-5.15-9.09-10.7-12.93-16.61-.13.18-.25.36-.38.53Z"/>
              <path class="cls-1" d="m288.67,226.71c-1.1,2.42-2.24,4.81-3.48,7.15.2-.02.4-.04.6-.07,1.08-2.05,2.09-4.14,3.06-6.25-.06-.28-.12-.56-.18-.84Z"/>
              <path class="cls-1" d="m279.9,242.86c-8.7,13.47-19.94,25.15-33.06,34.34.4-.08.81-.17,1.21-.26,12.88-9.2,23.92-20.81,32.49-34.15-.21.02-.43.05-.64.07Z"/>
              <path class="cls-1" d="m205.16,296.06c-5.54,1.33-11.23,2.3-17.03,2.86-1.09.26-2.17.52-3.26.79,6.97-.48,13.78-1.54,20.39-3.14-.03-.17-.07-.34-.1-.51Z"/>
            </g>
            <g>
              <path class="cls-1" d="m176.28,39.17c-1.08,0-2.16.04-3.24.06.04.17.08.34.11.51,1.04-.02,2.08-.06,3.12-.06,6.55,0,12.98.49,19.28,1.39.4-.11.8-.23,1.2-.34-6.68-1.01-13.52-1.56-20.48-1.56Z"/>
              <path class="cls-1" d="m219.51,46.7c.13-.13.25-.27.38-.41-1.81-.61-3.64-1.17-5.48-1.71-.32.09-.63.18-.95.27,2.03.58,4.06,1.18,6.05,1.85Z"/>
              <path class="cls-1" d="m155.9,40.69c-3.59.53-7.15,1.21-10.67,2.02,0,.19,0,.37.01.56,3.53-.83,7.12-1.52,10.75-2.06-.03-.17-.06-.34-.09-.52Z"/>
              <path class="cls-1" d="m136.83,45.51c0-.19,0-.39-.01-.58-14.55,4.35-28.28,11.12-40.69,20.1.21.09.43.18.65.28,12.04-8.65,25.54-15.4,40.05-19.79Z"/>
              <path class="cls-1" d="m259.53,67.46c-2.42-1.86-4.89-3.65-7.44-5.34,0,.21.01.42.02.63,2.58,1.73,5.08,3.54,7.53,5.44-.04-.24-.07-.48-.11-.72Z"/>
              <path class="cls-1" d="m243.48,56.81c-4.81-2.72-9.8-5.16-14.96-7.29-.12.13-.25.26-.37.39,5.29,2.18,10.41,4.69,15.34,7.49,0-.2-.01-.39-.02-.59Z"/>
              <path class="cls-1" d="m313,176.25c0,13.08-1.88,25.71-5.33,37.69.16.14.31.28.47.42,3.52-12.24,5.37-25.03,5.37-38.11,0-.63-.02-1.25-.03-1.88-.17.04-.34.07-.51.11,0,.59.03,1.18.03,1.77Z"/>
              <path class="cls-1" d="m309.71,144.25c-.31-.55-.63-1.09-.94-1.64,1.92,7.53,3.21,15.31,3.82,23.28.17-.04.34-.08.5-.11-.56-7.35-1.7-14.54-3.38-21.53Z"/>
              <path class="cls-1" d="m243.86,294.96c-.03.24-.05.49-.07.73,6.95-3.93,13.6-8.46,19.84-13.61-.44.09-.88.18-1.31.27-5.78,4.69-11.96,8.89-18.45,12.61Z"/>
              <path class="cls-1" d="m305.32,223.14c-.15-.14-.31-.27-.46-.41-1.16,3.21-2.48,6.33-3.88,9.42.23-.03.45-.05.68-.08,1.31-2.94,2.56-5.91,3.65-8.94Z"/>
              <path class="cls-1" d="m293.02,247.2c-5.39,8.83-11.73,17.02-18.92,24.38.35-.07.7-.14,1.05-.21,6.92-7.18,12.94-15,18.06-23.3-.06-.29-.12-.58-.18-.86Z"/>
              <path class="cls-1" d="m207.8,309.27c-10.12,2.4-20.67,3.71-31.52,3.71-3.95,0-7.85-.21-11.71-.54.13.18.27.36.41.53,3.74.31,7.51.51,11.3.51,10.79,0,21.38-1.27,31.62-3.68-.04-.18-.07-.36-.11-.54Z"/>
              <path class="cls-1" d="m216.04,307.64c2.34-.7,4.66-1.45,6.96-2.28-.16-.15-.31-.3-.47-.45-2.17.78-4.38,1.49-6.6,2.17.04.19.07.37.11.56Z"/>
              <path class="cls-1" d="m64.69,254.97c-.12.17-.24.34-.36.51,1.69,2.38,3.48,4.71,5.33,6.99.22-.04.45-.07.67-.11-1.95-2.4-3.84-4.86-5.63-7.4Z"/>
              <path class="cls-1" d="m121.95,302.27c2.54,1.09,5.11,2.13,7.71,3.07.33-.09.67-.19,1-.28-3-1.07-5.94-2.27-8.85-3.54.04.25.09.5.14.75Z"/>
              <path class="cls-1" d="m112.47,296.96c-13.39-7.12-25.49-16.35-35.78-27.32-.25.04-.5.08-.75.12,1.11,1.19,2.22,2.37,3.37,3.53,9.95,9.96,21.18,18.13,33.3,24.49-.05-.27-.1-.55-.15-.82Z"/>
              <path class="cls-1" d="m145.11,309.89c2.29.53,4.6,1.02,6.92,1.44.14-.16.28-.31.42-.47-2.1-.37-4.17-.8-6.23-1.27-.37.1-.74.2-1.11.3Z"/>
              <path class="cls-1" d="m59.43,248.09c.13-.18.26-.37.39-.55-1.27-2.06-2.46-4.17-3.62-6.31-.2.06-.4.13-.59.2,1.22,2.25,2.48,4.48,3.83,6.67Z"/>
              <path class="cls-1" d="m42.3,205.38c2.12,9.83,5.3,19.35,9.49,28.43.19-.06.38-.13.58-.19-4.43-9.53-7.75-19.67-9.9-30.23-.06.67-.11,1.33-.17,2Z"/>
              <path class="cls-1" d="m73.56,85.53c-5.34,6.04-10.12,12.47-14.26,19.24.26-.02.52-.03.78-.05,4.02-6.52,8.6-12.66,13.63-18.4-.05-.27-.1-.53-.14-.8Z"/>
              <path class="cls-1" d="m55.15,113.33c-.23.02-.46.03-.69.04-1.17,2.26-2.29,4.54-3.33,6.86.15.15.3.31.45.46,1.12-2.5,2.31-4.95,3.57-7.36Z"/>
            </g>
            <g>
              <path class="cls-1" d="m304.04,258.78c4.11-6.34,7.74-12.93,10.84-19.77-.24.03-.48.06-.72.08-2.99,6.52-6.47,12.76-10.31,18.75.07.31.13.62.19.94Z"/>
              <path class="cls-1" d="m289.48,276.85c-12.73,14.3-28.09,26.21-45.35,34.89.04.2.08.39.12.59,14.45-7.23,27.81-16.78,39.57-28.53,2.32-2.32,4.52-4.72,6.66-7.15-.34.07-.67.13-1.01.2Z"/>
              <path class="cls-1" d="m218.85,321.7c.04.19.08.38.11.56,4.79-1.39,9.5-3.02,14.12-4.88.02-.22.05-.45.07-.68-4.66,1.9-9.43,3.56-14.31,4.99Z"/>
              <path class="cls-1" d="m210.7,323.84c-11.03,2.58-22.51,4-34.32,4,.13.17.26.33.39.5,11.61-.04,23-1.41,34.03-3.96-.04-.18-.07-.36-.11-.54Z"/>
              <path class="cls-1" d="m165.47,327.42c-5.04-.37-10.03-.96-14.92-1.8-.14.16-.28.31-.42.47,5.19.9,10.45,1.51,15.77,1.88-.14-.18-.28-.36-.42-.54Z"/>
              <path class="cls-1" d="m70.31,67.39c-.5.48-1.02.95-1.51,1.44-3.35,3.35-6.5,6.85-9.49,10.45.35-.1.71-.2,1.06-.3,3.18-3.79,6.54-7.43,10.07-10.9-.04-.23-.08-.46-.12-.7Z"/>
              <path class="cls-1" d="m26.1,195.71c-.82-6.37-1.27-12.86-1.27-19.46,0-17.05,2.91-33.42,8.14-48.71-.14-.22-.28-.43-.42-.65-5.38,15.68-8.23,32.3-8.23,49.36,0,6.09.37,12.12,1.07,18.07.23.46.47.92.71,1.38Z"/>
              <path class="cls-1" d="m50.19,261.23c.13-.18.25-.36.38-.54-3.17-4.72-6.06-9.64-8.69-14.71-.2.07-.4.14-.6.2,2.67,5.17,5.64,10.19,8.91,15.04Z"/>
              <path class="cls-1" d="m107.11,311.7c.28-.08.57-.17.85-.25-9.64-4.91-18.69-10.81-27.01-17.59.4.61.79,1.21,1.19,1.82,7.83,6.2,16.2,11.53,24.97,16.02Z"/>
              <path class="cls-1" d="m327.26,158.21c-1.49-12.38-4.46-24.31-8.74-35.61-.19-.03-.38-.05-.57-.08,4.17,10.95,7.11,22.5,8.65,34.48.22.4.43.8.65,1.2Z"/>
              <path class="cls-1" d="m327.86,176.97c-.08,16.77-2.92,32.88-8.05,47.96.16.14.31.29.47.43,5.13-15.1,7.9-31.07,8.07-47.46-.16-.31-.32-.62-.49-.93Z"/>
              <path class="cls-1" d="m266.03,54.37c20.37,15.01,36.88,34.95,47.69,58.08.12-.15.23-.31.35-.46-10.92-23.27-27.59-43.29-48.15-58.33.04.24.08.47.11.71Z"/>
              <path class="cls-1" d="m153.52,26.03c-2.88.43-5.74.92-8.58,1.51,0,.18,0,.37.01.55,2.85-.6,5.74-1.1,8.64-1.54-.03-.17-.05-.35-.08-.52Z"/>
              <path class="cls-1" d="m136.55,30.14c0-.19,0-.39,0-.58-20.53,5.52-39.69,15.3-56.35,28.95.22.08.43.17.65.26,16.15-13.15,35.07-23.01,55.71-28.62Z"/>
              <path class="cls-1" d="m169.89,24.43c.03.17.07.34.1.51,2.08-.09,4.17-.14,6.28-.14,17.03,0,33.4,2.84,48.68,8.04.28-.08.56-.16.84-.24-15.53-5.37-32.19-8.31-49.52-8.31-2.13,0-4.26.05-6.38.14Z"/>
            </g>
            <g>
              <path class="cls-1" d="m224.29,18.85c-.24-.24-.49-.49-.73-.74-5.44-1.63-11-2.99-16.66-4.06-.56.07-1.12.14-1.68.21,6.49,1.16,12.86,2.69,19.07,4.59Z"/>
              <path class="cls-1" d="m74.99,46.66c9.24-7.23,19.26-13.49,29.93-18.64-.7.11-1.4.22-2.09.32-9.83,4.89-19.2,10.78-27.97,17.63.04.23.09.46.13.69Z"/>
              <path class="cls-1" d="m263.75,36.94c24.84,15.63,45.26,37.66,58.83,63.81.11-.15.23-.3.34-.45-13.68-26.26-34.24-48.36-59.25-64.01.02.22.05.43.08.65Z"/>
              <path class="cls-1" d="m326.69,109.25c.94,2.11,1.84,4.25,2.69,6.4.19.03.39.05.58.08-.93-2.34-1.9-4.66-2.93-6.94-.12.15-.23.31-.35.46Z"/>
              <path class="cls-1" d="m341.01,176.24c0,2.52-.06,5.03-.17,7.52.15.3.3.6.45.9.14-2.8.23-5.6.23-8.43,0-2.65-.07-5.28-.2-7.89-.17.04-.34.07-.5.11.12,2.58.19,5.17.19,7.79Z"/>
              <path class="cls-1" d="m50.59,69.28c-.01.32-.03.64-.04.96,2.93-3.49,5.98-6.87,9.2-10.1-.2-.07-.4-.15-.61-.22-3,3.02-5.82,6.16-8.55,9.37Z"/>
              <path class="cls-1" d="m23.31,115.72c-.22.02-.45.04-.67.06-6.35,16.13-10.15,33.27-11.16,50.94.15.3.3.6.44.91.95-18.25,4.94-35.69,11.39-51.91Z"/>
              <path class="cls-1" d="m12.05,186.62c-.19-.38-.39-.77-.58-1.16,1.1,20.05,5.76,39.41,13.66,57.38.19-.07.38-.13.57-.2-7.65-17.32-12.41-36.2-13.65-56.02Z"/>
              <path class="cls-1" d="m118.45,330.39c-5.84-2.2-11.55-4.69-17.05-7.52.3.39.59.79.9,1.18,5.29,2.65,10.73,4.98,16.28,7.05-.04-.23-.08-.47-.13-.7Z"/>
              <path class="cls-1" d="m82.81,311.67c-13.18-9.15-24.99-20.15-35.01-32.66-.13.18-.26.37-.38.55,3.76,4.69,7.77,9.21,12.08,13.53,7.59,7.6,15.79,14.35,24.48,20.24-.39-.55-.79-1.1-1.17-1.65Z"/>
              <path class="cls-1" d="m300.66,284.07c-13.36,15.4-29.52,28.3-47.68,37.9.16.15.32.3.49.45,14.42-7.64,27.78-17.47,39.65-29.33,2.68-2.68,5.23-5.46,7.69-8.3-.05-.24-.1-.48-.15-.73Z"/>
              <path class="cls-1" d="m316.85,263.15c3.93-6.34,7.41-12.93,10.44-19.71-.15-.15-.31-.29-.46-.44-3.14,7.05-6.79,13.83-10.85,20.32.29-.06.58-.11.87-.17Z"/>
              <path class="cls-1" d="m221.44,334.62c.04.18.07.37.11.55,3.38-.96,6.73-2.02,10.03-3.19.02-.21.04-.43.07-.64-3.35,1.2-6.76,2.29-10.21,3.28Z"/>
              <path class="cls-1" d="m213.28,336.74c-8.69,2-17.64,3.32-26.79,3.89.06.07.12.15.17.22.07.09.14.18.21.26,9-.57,17.86-1.86,26.51-3.84-.04-.18-.07-.36-.11-.53Z"/>
              <path class="cls-1" d="m176.06,340.98c-12.28-.02-24.23-1.42-35.75-4-.14.16-.29.31-.43.47,11.81,2.64,23.98,4.05,36.38,4.05.07,0,.13,0,.2,0-.14-.17-.27-.34-.41-.51Z"/>
            </g>
          </g>
          <path class="cls-5" d="m352.67,176.32c0,97.4-78.96,176.34-176.34,176.34-73.13,0-135.87-44.53-162.58-107.96,34.04,10.58,160.88-1.69,186.96-59.03,17.58-38.65,20.75-137.7-25.13-185.66h.75c97.38,0,176.34,78.94,176.34,176.32Z"/>
        </g>
      </g>
    </g>
  </g>
</svg>