<?xml version="1.0" encoding="UTF-8"?>
<svg id="Layer_2" data-name="Layer 2" xmlns="http://www.w3.org/2000/svg" viewBox="0 0 259.39 238.53">
  <defs>
    <style>
      .cls-1 {
        fill: #f9b978;
      }

      .cls-2 {
        fill: #f9d792;
      }

      .cls-3 {
        fill: #fff;
      }

      .cls-4 {
        fill: #f39200;
      }

      .cls-5 {
        fill: #bf2a18;
      }

      .cls-6 {
        fill: #e3481e;
      }

      .cls-7 {
        fill: #72350f;
      }

      .cls-8 {
        fill: #73190f;
      }
    </style>
  </defs>
  <g id="Capa_1" data-name="Capa 1">
    <g id="Drums">
      <g>
        <path class="cls-6" d="m259.39,104.65v97.57c0,20.05-41.26,36.31-92.16,36.31-32.34,0-60.8-6.57-77.26-16.51-6.4-3.88-10.98-8.27-13.26-12.97-1.07-2.23-1.62-4.51-1.62-6.84v-97.57h184.3Z"/>
        <path class="cls-5" d="m87.22,123.92s75.15,64.4,163.23,15.26l-4.31-34.54s-51.21,5.63-52.44,4.81c-1.24-.83-106.47,14.47-106.47,14.47Z"/>
        <path class="cls-5" d="m259.39,104.65v97.57c0,20.05-41.26,36.31-92.16,36.31-32.34,0-60.8-6.57-77.26-16.51-6.4-3.88-10.98-8.27-13.26-12.97-1.07-2.23-1.62-4.51-1.62-6.84v-8.36c5.65,3.37,11.18,6.23,17.6,8.14,7.83,2.33,15.93,3.59,24.02,4.46,21.96,2.35,44.53,2.64,65.79-3.42,21.23-6.06,41.18-19.1,51.85-38.45,5.87-10.62,8.73-22.64,10.5-34.64,1.24-8.36,1.96-16.9,1.28-25.31h13.26Z"/>
        <path class="cls-3" d="m167.24,230.42c-47.42,0-86.47-14.11-91.58-32.26-.37,1.33-.57,2.68-.57,4.05,0,20.05,41.26,36.31,92.15,36.31s92.15-16.26,92.15-36.31c0-1.37-.2-2.72-.57-4.05-5.11,18.15-44.16,32.26-91.58,32.26Z"/>
        <g>
          <path class="cls-8" d="m241.76,126.84s-6.56,48.8.02,92.76c0,0,6.49-63.12-.02-92.76Z"/>
          <path class="cls-4" d="m233.06,129.81s1.26,4.57,6.7,3.7c0,0,8.1-1.23,10.55-11.52,1.89-7.94-17.25,7.81-17.25,7.81Z"/>
          <path class="cls-4" d="m234.48,227.03s1.16-11.44,7.06-14.2c4.5-2.1,7.32,6.22,7.32,6.22,0,0-7.67,6.14-14.38,7.98Z"/>
        </g>
        <g>
          <path class="cls-8" d="m92.84,126.84s6.56,48.8-.02,92.76c0,0-6.49-63.12.02-92.76Z"/>
          <path class="cls-4" d="m101.54,129.81s-1.26,4.57-6.7,3.7c0,0-8.1-1.23-10.55-11.52-1.89-7.94,17.25,7.81,17.25,7.81Z"/>
          <path class="cls-4" d="m100.12,227.03s-1.16-11.44-7.06-14.2c-4.5-2.1-7.32,6.22-7.32,6.22,0,0,7.67,6.14,14.38,7.98Z"/>
        </g>
        <path class="cls-8" d="m166.31,144.74s-8.96,47.05.03,87.17c0,0,8.86-60.12-.03-87.17Z"/>
        <path class="cls-4" d="m166.34,140.29c-7.62-1.19-11.35-.87-12.7-3.15l-1.18.97s3.17,7.76,13.84,9.43c0,0,11.62-1.14,13.91-9.24l-.43-.95c-3.99,6.97-13.44,2.94-13.44,2.94Z"/>
        <path class="cls-4" d="m166.38,229.12s-11.32,1.11-13.82,8.94h0c4.78.3,9.68.46,14.67.46,4.35,0,8.62-.12,12.81-.35-.8-1.58-4.4-7.6-13.66-9.04Z"/>
        <ellipse class="cls-3" cx="167.24" cy="105.92" rx="92.15" ry="36.31"/>
        <path class="cls-8" d="m257.03,105.92c0,19.54-40.2,35.38-89.79,35.38s-89.79-15.84-89.79-35.38,40.2-35.38,89.79-35.38,89.79,15.84,89.79,35.38Z"/>
        <path class="cls-1" d="m251.65,105.92c0,18.37-37.79,33.26-84.41,33.26s-84.42-14.89-84.42-33.26,37.79-33.26,84.42-33.26,84.41,14.89,84.41,33.26Z"/>
        <path class="cls-2" d="m227.82,105.92c0,16.48-30.86,29.84-68.94,29.84s-68.93-13.36-68.93-29.84,30.86-29.84,68.93-29.84,68.94,13.36,68.94,29.84Z"/>
        <polygon class="cls-1" points="89.95 96.58 158.88 100.94 156.76 98.7 92.85 93.98 89.95 96.58"/>
        <polygon class="cls-1" points="97.19 90.58 168.6 98.7 166.48 96.45 99.66 87.79 97.19 90.58"/>
      </g>
      <path class="cls-7" d="m8.09,0l-1.89,2.91,144.89,92.96c-.07.93.62,2.07,2.39,3.22,2.31,1.5,5.6,2.45,6.27,1.42.67-1.03-1.53-3.65-3.84-5.15-1.65-1.07-2.91-1.29-3.75-.95L8.09,0Z"/>
      <path class="cls-7" d="m166.54,93.74c-1.85-.68-3.13-.6-3.86-.09L1.19,33.73l-1.19,3.26,161.97,58.32c.14.93,1.07,1.88,3.05,2.61,2.59.95,6,1.14,6.43-.02.42-1.15-2.3-3.21-4.9-4.16Z"/>
    </g>
  </g>
</svg>