<?xml version="1.0" encoding="UTF-8"?>
<svg xmlns="http://www.w3.org/2000/svg" viewBox="0 0 219.51 618.16">
  <defs>
    <style>
      .cls-1 {
        fill: #f9d792;
      }

      .cls-2 {
        fill: #f6a664;
      }

      .cls-3 {
        fill: #fff;
      }

      .cls-4 {
        fill: #31b5ab;
      }

      .cls-5 {
        fill: #560e20;
      }

      .cls-6 {
        stroke: #452944;
        stroke-width: .91px;
      }

      .cls-6, .cls-7 {
        fill: none;
        stroke-miterlimit: 10;
      }

      .cls-8 {
        fill: #5c388d;
        mix-blend-mode: multiply;
        opacity: .41;
      }

      .cls-7 {
        stroke: #560e20;
        stroke-width: 1.03px;
      }

      .cls-9 {
        isolation: isolate;
      }
    </style>
  </defs>
  <g class="cls-9">
    <g id="Layer_2" data-name="Layer 2">
      <g id="Capa_1" data-name="Capa 1">
        <g id="Electric_Guitar" data-name="Electric Guitar">
          <g>
            <path class="cls-3" d="m9.51,60.51c-.18,1.76-1.76,3.03-3.51,2.85h0c-1.76-.18-3.04-1.76-2.85-3.52l.44-4.19c.18-1.76,1.76-3.03,3.52-2.85h0c1.76.19,3.03,1.76,2.85,3.52l-.45,4.19Z"/>
            <rect class="cls-3" x="10.37" y="54.48" width="3.06" height="8.31" transform="translate(-47.66 64.33) rotate(-83.98)"/>
          </g>
          <g>
            <path class="cls-3" d="m7.62,73.67c-.18,1.76-1.76,3.04-3.52,2.85h0c-1.76-.19-3.03-1.76-2.85-3.52l.44-4.19c.19-1.76,1.76-3.04,3.52-2.85h0c1.76.19,3.03,1.76,2.85,3.52l-.44,4.19Z"/>
            <rect class="cls-3" x="8.47" y="67.65" width="3.06" height="8.31" transform="translate(-62.46 74.23) rotate(-83.98)"/>
          </g>
          <g>
            <path class="cls-3" d="m6.38,86.75c-.18,1.76-1.76,3.03-3.52,2.85h0c-1.76-.18-3.03-1.76-2.85-3.52l.44-4.19c.18-1.76,1.76-3.03,3.52-2.85h0c1.75.19,3.03,1.76,2.85,3.52l-.45,4.19Z"/>
            <rect class="cls-3" x="7.24" y="80.72" width="3.06" height="8.31" transform="translate(-76.56 84.72) rotate(-83.99)"/>
          </g>
          <g>
            <path class="cls-3" d="m14.56,22.11c-.18,1.76-1.76,3.03-3.52,2.85h0c-1.76-.18-3.03-1.76-2.85-3.52l.44-4.19c.19-1.76,1.76-3.03,3.52-2.85h0c1.76.19,3.04,1.76,2.85,3.52l-.44,4.19Z"/>
            <rect class="cls-3" x="15.42" y="16.09" width="3.06" height="8.31" transform="translate(-4.96 34.97) rotate(-83.98)"/>
          </g>
          <g>
            <path class="cls-3" d="m12.67,35.28c-.19,1.76-1.76,3.04-3.52,2.85h0c-1.76-.19-3.03-1.76-2.85-3.52l.45-4.19c.18-1.76,1.76-3.03,3.51-2.85h0c1.76.18,3.04,1.76,2.85,3.52l-.44,4.19Z"/>
            <rect class="cls-3" x="13.52" y="29.26" width="3.06" height="8.31" transform="translate(-19.76 44.87) rotate(-83.98)"/>
          </g>
          <g>
            <path class="cls-3" d="m11.44,48.35c-.18,1.76-1.76,3.03-3.52,2.85h0c-1.76-.19-3.03-1.76-2.85-3.52l.45-4.19c.18-1.76,1.76-3.03,3.51-2.85h0c1.76.18,3.04,1.76,2.85,3.52l-.44,4.19Z"/>
            <rect class="cls-3" x="12.29" y="42.33" width="3.06" height="8.3" transform="translate(-33.86 55.35) rotate(-83.98)"/>
          </g>
          <g>
            <path class="cls-4" d="m219.45,541.49c1.9,42.66-40.18,66.12-87.17,74.51-42.57,6.92-85.94-2.42-102.25-34.7-1.71-3.42-3.13-7.11-4.22-11.06-11.3-41.16,16.25-69.34,22.4-90.19,8.18-27.69-5.24-37.03-9.14-44.6-3.92-7.54-32.01-35.97-24.71-69.97,2.56-11.95,16.57-24.49,18.66-1.34.84,9.1,11.92,18.08,14.46,18.85,15.56,4.75,22.53-4.41,22.53-4.41l31.51,9.4,7.83,2.35s23.68,19.44,38.91-4.87c4.11-6.58.76-22.04,2.13-27.98,2.41-10.25,9.7-6.16,15.97,4.09,18.19,29.65-4.9,53.58-6.07,62-1.19,8.44-5.97,21.77,6.96,38.01,8.83,11.11,50.69,45.87,52.2,79.91Z"/>
            <path class="cls-5" d="m219.12,537.84c.18,1.22.27,2.44.33,3.66,1.9,42.66-40.18,66.12-87.17,74.51-17.52,2.84-35.18,2.93-51.04-.21,1.9-2.54,4.61-4.55,7.53-5.86,4.87-2.16,10.3-2.6,15.6-2.81,16.36-.65,33.09.65,48.91-3.63,13.54-3.69,25.91-11.46,35.35-21.85,4.35-4.78,8.09-10.09,11.12-15.79,4.3-8.09,7.25-17.05,13.07-24.12,1.63-1.95,3.76-3.91,6.29-3.9Z"/>
            <path class="cls-3" d="m63.04,394.07s21.39,63.2,10.2,86.78c-11.19,23.58-1.85,58.06,50.01,50.54,23.51-3.41,46.5-.18,61.96,16.57,12.77,13.83,4.05,40.67,20.39,27.57,4.86-3.9,20.53-40.26-5.88-72.23-27.18-32.91-46.89-44.75-44.28-68.98,3.38-31.47,14.2-36.89,13.99-50.94-.25-16.58-13.82-30.47-14.31-22.54-.5,7.92,3.25,29.88-14.53,39.13-17.79,9.26-57.91-15.45-68.25-16.71-7.33-.89-12.17,1.56-9.29,10.81Z"/>
            <path class="cls-8" d="m219.12,537.84c.18,1.22.27,2.44.33,3.66,1.9,42.66-40.18,66.12-87.17,74.51-17.52,2.84-35.18,2.93-51.04-.21-22.65-4.45-41.62-15.49-51.21-34.49,5.91-5.85,15.15-7.36,23.41-6.06,8.54,1.32,16.43,5.19,24.41,8.45,11.24,4.6,22.95,8.13,34.86,10.48,9.14,1.81,18.6,2.95,27.69,1,20.45-4.38,35.21-24.38,37.54-45.16,2.33-20.78-6-41.62-18.56-58.33-7.39-9.88-16.63-19.37-18.42-31.58-1.63-10.98,2.84-23.7-4.04-32.44-4.33-5.51-11.74-7.27-17.84-10.73-8.81-4.96-15.23-14.02-17.06-23.99-.31-1.64-.46-3.29-.5-4.96l7.83,2.35s23.68,19.44,38.91-4.87c4.11-6.58.76-22.04,2.13-27.98,2.41-10.25,9.7-6.16,15.97,4.09,18.19,29.65-4.9,53.58-6.07,62-1.19,8.44-5.97,21.77,6.96,38.01,8.52,10.72,47.74,43.39,51.87,76.26Z"/>
            <polygon class="cls-1" points="109.34 390.34 73.07 396.53 28.04 116.15 58.84 110.89 109.34 390.34"/>
            <path class="cls-2" d="m109.34,390.34l-8.79,1.5c-2.48-3.56-4.19-8.24-6.27-11.69-3.57-5.91-7.37-11.75-9.48-18.4-4.92-15.59.25-32.38.71-48.71,1.05-37.21-22.23-70.89-27.06-107.81-2.28-17.56-.33-35.48-2.75-52.99-1.59-11.36-4.98-22.54-4.72-33.99.04-2.07.24-4.22.94-6.16l6.93-1.18,50.51,279.44Z"/>
            <rect class="cls-7" x="92.96" y="521.72" width="44.09" height="22.16" transform="translate(-88.01 26.95) rotate(-9.69)"/>
            <rect class="cls-5" x="94.83" y="524.25" width="40.36" height="17.11" transform="translate(-88.01 26.95) rotate(-9.69)"/>
            <g>
              <line class="cls-6" x1="56.72" y1="114.59" x2="131.85" y2="522.14"/>
              <line class="cls-6" x1="52.23" y1="115.36" x2="124.18" y2="523.45"/>
              <line class="cls-6" x1="46.52" y1="116.33" x2="116.7" y2="524.73"/>
              <line class="cls-6" x1="30.81" y1="119.01" x2="95.13" y2="528.41"/>
              <line class="cls-6" x1="35.3" y1="118.24" x2="102.81" y2="527.1"/>
              <line class="cls-6" x1="41" y1="117.27" x2="110.28" y2="525.83"/>
            </g>
            <rect class="cls-5" x="25.9" y="113.49" width="35.73" height="4.01" transform="translate(-18.81 9.01) rotate(-9.69)"/>
          </g>
          <path class="cls-1" d="m65.94,99.45c-7.98,2.79-7.89,8.11-7.89,8.11l.78,4.59-30.59,5.22-.85-4.99s-11.22-2.51-16.06-7.22c-3.74-3.62-2.86-9.72-1.92-16.57C15.09,47.19,18.9,14.53,24.12,6.92,29.35-.66,38.36-1.58,44.76,2.07c4.17,2.36,7.24,6.66,7.42,12.33.48,15.8-14.6,15.16-14.6,15.16,0,0,7.07,25.55,24.28,48.9,5.67,7.71,11.86,18.31,4.08,20.99Z"/>
          <path class="cls-2" d="m65.94,99.45c-7.98,2.79-7.89,8.11-7.89,8.11l.78,4.59-17.92,3.06c-.92-.95-1.78-1.93-2.62-2.95-.8-.97-1.63-2.03-1.89-3.27-.52-2.3.91-4.58,2.51-6.31,1.59-1.75,3.49-3.3,4.35-5.51.9-2.37.42-5.02-.12-7.48-4.82-21.33-14.59-41.65-16.22-63.48-.44-5.58-.26-11.44,2.24-16.44,1.59-3.22,4.42-6.24,7.81-7.53,2.82-1.07,5.01-.07,7.79-.17,4.17,2.36,7.24,6.66,7.42,12.33.48,15.8-14.6,15.16-14.6,15.16,0,0,7.07,25.55,24.28,48.9,5.67,7.71,11.86,18.31,4.08,20.99Z"/>
          <path class="cls-5" d="m119.5,407.87c.39,2.31-1.16,4.5-3.47,4.89l-41.81,7.14c-2.31.39-4.5-1.16-4.9-3.47h0c-.39-2.31,1.16-4.5,3.47-4.9l41.81-7.14c2.31-.39,4.5,1.16,4.9,3.47h0Z"/>
          <path class="cls-5" d="m126.42,448.41c.39,2.31-1.15,4.5-3.47,4.9l-41.81,7.14c-2.31.39-4.5-1.16-4.9-3.47h0c-.39-2.31,1.16-4.5,3.47-4.89l41.81-7.14c2.31-.39,4.5,1.16,4.9,3.47h0Z"/>
          <path class="cls-5" d="m134.93,500.24c.02,2.34-1.87,4.25-4.21,4.27l-42.42.28c-2.34.02-4.26-1.87-4.27-4.21h0c-.02-2.35,1.87-4.26,4.21-4.27l42.42-.28c2.34-.02,4.25,1.87,4.27,4.22h0Z"/>
          <path class="cls-5" d="m172.5,522.16c.54,3.14-1.57,6.11-4.7,6.64-3.14.54-6.11-1.57-6.65-4.71-.53-3.13,1.57-6.11,4.71-6.64,3.13-.53,6.1,1.58,6.64,4.71Z"/>
          <path class="cls-5" d="m192.07,534.16c.53,3.13-1.57,6.11-4.7,6.64-3.13.53-6.11-1.57-6.64-4.71-.53-3.13,1.57-6.11,4.7-6.64,3.14-.54,6.11,1.57,6.64,4.71Z"/>
          <path class="cls-5" d="m15.39,84.26c-.24,2.08,1.24,3.96,3.32,4.2h0c2.08.24,3.96-1.24,4.2-3.32l7.17-61.1c.24-2.08-1.25-3.96-3.32-4.2h0c-2.08-.24-3.96,1.24-4.2,3.32l-7.17,61.1Z"/>
        </g>
      </g>
    </g>
  </g>
</svg>