<?xml version="1.0" encoding="utf-8"?>
<!-- Generator: Adobe Illustrator 27.4.1, SVG Export Plug-In . SVG Version: 6.00 Build 0)  -->
<svg version="1.1" id="freddie" xmlns="http://www.w3.org/2000/svg" xmlns:xlink="http://www.w3.org/1999/xlink" x="0px" y="0px"
	 viewBox="0 0 97.7 180.8" style="enable-background:new 0 0 97.7 180.8;" xml:space="preserve">
<style type="text/css">
	.st0{fill:#232323;}
	.st1{fill:#FDFDFD;stroke:#392726;stroke-miterlimit:10;}
	.st2{fill:#FDFDFD;}
	.st3{fill:#2E2E2E;}
</style>
<g id="Freddie">
	<path id="hair" class="st0" d="M72.3,19.4c-0.1,7.4-0.3,14.9-0.4,22.3c-0.8,0.5-1.6,0.4-2.2-0.3c-3.6-5.2-2.7-11.2-2.9-16.9
		c-0.4-10.6-3.3-13.2-13.8-11.8c-3.2,0.4-6.3,0.4-9.5,0c-8.2-0.9-11.9,2.3-12,10.6c-0.1,4.2,0.5,8.5-1.3,12.5
		c-0.5,1-1.2,1.6-2.5,1.3c-1.8-7.6-1.1-15.2-0.4-22.8c0.8-7.8,6.1-11,12.9-12.7c0.1,0,0.1,0,0.2,0h-0.2C47-0.5,54-0.7,60.9,1.8h-0.2
		c0,0,0.1,0,0.1,0C70,4.3,71,12,72.3,19.4z"/>
	<path id="face_outline" class="st1" d="M29.6,62.3c-0.3-1.4-0.6-2.8-0.9-4.2c-0.8-6-1-12,0.1-18c0-1-0.1-2-0.1-3
		c0.2-5.1,0.5-10.1,0.5-15.2c0-8.4,5.6-13.9,13.5-11.5c4.2,1.2,7.5,0.6,11.4-0.1C64.9,8.5,70,12.9,68.8,23.8
		c-0.7,6.3,0.8,12.1,1.8,18c-0.2,10.7,0.8,21.8-9.8,29c-6.5,6.6-15.1,7-24.8,1c-0.2-0.4-0.5-0.7-0.7-1.1
		C34.7,67.1,31.3,65.2,29.6,62.3z"/>
	<path id="face_inner" class="st2" d="M30.9,62.2c-0.3-1.3-0.5-2.6-0.8-3.9c-0.8-5.6-0.9-11.2,0.1-16.8c0-1-0.1-1.9-0.1-2.8
		c0.2-4.7,0.5-9.5,0.5-14.2c0-7.9,5.2-12.9,12.6-10.8c3.9,1.1,7,0.5,10.6,0c10.1-1.6,14.8,2.5,13.7,12.6c-0.6,5.9,0.8,11.3,1.7,16.8
		c-0.2,10,0.8,20.3-9.1,27.1C54,76.4,46,76.7,37,71.1c-0.2-0.3-0.4-0.7-0.7-1C35.7,66.7,32.5,65,30.9,62.2z"/>
	<path id="stache" class="st3" d="M35.5,57.7C43.3,47.4,57,47.5,65.2,58C54.9,57.4,45.2,54.2,35.5,57.7z"/>
</g>
</svg>
