<?xml version="1.0" encoding="UTF-8"?>
<svg xmlns="http://www.w3.org/2000/svg" viewBox="0 0 454.21 528.17">
  <defs>
    <style>
      .cls-1 {
        fill: #f9b233;
      }

      .cls-2 {
        fill: #ffe3b8;
      }

      .cls-3 {
        fill: #f39200;
      }

      .cls-4 {
        fill: #fbb920;
      }

      .cls-5 {
        fill: #b2b2b2;
      }

      .cls-6, .cls-7 {
        fill: #1d1d1b;
      }

      .cls-8 {
        fill: #1c080d;
      }

      .cls-9 {
        fill: #706f6f;
      }

      .cls-10 {
        stroke-width: .91px;
      }

      .cls-10, .cls-11 {
        fill: none;
        stroke: #ffe3b8;
        stroke-miterlimit: 10;
      }

      .cls-7 {
        mix-blend-mode: multiply;
        opacity: .61;
      }

      .cls-12 {
        isolation: isolate;
      }

      .cls-11 {
        stroke-width: .93px;
      }
    </style>
  </defs>
  <g class="cls-12">
    <g id="Layer_2" data-name="Layer 2">
      <g id="Capa_1" data-name="Capa 1">
        <g id="Guitar">
          <g>
            <path class="cls-2" d="m448.21,57.31c-.94,1.2-2.67,1.41-3.86.47l-8.07-6.3c-1.2-.94-1.41-2.66-.47-3.86h0c.93-1.2,2.66-1.41,3.86-.47l8.07,6.3c1.2.94,1.42,2.66.48,3.86h0Z"/>
            <path class="cls-2" d="m449.16,62.18c-1.68,2.15-4.77,2.53-6.92.86h0c-2.15-1.68-2.53-4.78-.86-6.93l4-5.12c1.68-2.15,4.78-2.53,6.93-.85h0c2.15,1.68,2.52,4.77.84,6.92l-4,5.12Z"/>
          </g>
          <g>
            <path class="cls-2" d="m433.76,75.83c-.94,1.2-2.67,1.41-3.86.47l-8.07-6.3c-1.2-.94-1.41-2.66-.47-3.86h0c.93-1.2,2.66-1.41,3.86-.47l8.07,6.3c1.2.94,1.42,2.66.48,3.86h0Z"/>
            <path class="cls-2" d="m434.71,80.7c-1.68,2.15-4.77,2.53-6.92.86h0c-2.15-1.68-2.53-4.78-.86-6.93l4-5.12c1.68-2.15,4.78-2.53,6.93-.85h0c2.15,1.68,2.52,4.77.84,6.92l-4,5.12Z"/>
          </g>
          <g>
            <path class="cls-2" d="m419.3,94.34c-.94,1.2-2.67,1.41-3.86.47l-8.07-6.3c-1.2-.94-1.41-2.66-.47-3.86h0c.93-1.2,2.66-1.41,3.86-.47l8.07,6.3c1.2.94,1.42,2.66.48,3.86h0Z"/>
            <path class="cls-2" d="m420.25,99.21c-1.68,2.15-4.77,2.53-6.92.86h0c-2.15-1.68-2.53-4.78-.86-6.93l4-5.12c1.68-2.15,4.78-2.53,6.93-.85h0c2.15,1.68,2.52,4.77.84,6.92l-4,5.12Z"/>
          </g>
          <g>
            <path class="cls-2" d="m383.93,7.12c-.94,1.2-.72,2.93.48,3.86l8.07,6.3c1.2.94,2.92.72,3.86-.48h0c.93-1.2.72-2.92-.48-3.86l-8.07-6.3c-1.2-.94-2.93-.73-3.86.47h0Z"/>
            <path class="cls-2" d="m378.98,7.37c-1.68,2.15-1.3,5.24.84,6.92h0c2.15,1.68,5.26,1.3,6.93-.85l4-5.12c1.68-2.15,1.29-5.25-.86-6.93h0c-2.15-1.68-5.24-1.29-6.92.86l-4,5.12Z"/>
          </g>
          <g>
            <path class="cls-2" d="m369.47,25.63c-.94,1.2-.72,2.93.48,3.86l8.07,6.3c1.2.94,2.92.72,3.86-.48h0c.93-1.2.72-2.92-.48-3.86l-8.07-6.3c-1.2-.94-2.93-.73-3.86.47h0Z"/>
            <path class="cls-2" d="m364.52,25.89c-1.68,2.15-1.3,5.24.84,6.92h0c2.15,1.68,5.26,1.3,6.93-.85l4-5.12c1.68-2.15,1.29-5.25-.86-6.93h0c-2.15-1.68-5.24-1.29-6.92.86l-4,5.12Z"/>
          </g>
          <g>
            <path class="cls-2" d="m355.02,44.14c-.94,1.2-.72,2.93.48,3.86l8.07,6.3c1.2.94,2.92.72,3.86-.48h0c.93-1.2.72-2.92-.48-3.86l-8.07-6.3c-1.2-.94-2.93-.73-3.86.47h0Z"/>
            <path class="cls-2" d="m350.06,44.4c-1.68,2.15-1.3,5.24.84,6.92h0c2.15,1.68,5.26,1.3,6.93-.85l4-5.12c1.68-2.15,1.29-5.25-.86-6.93h0c-2.15-1.68-5.24-1.29-6.92.86l-4,5.12Z"/>
          </g>
          <path class="cls-3" d="m446.69,40.44l-38.33,49.08c-.06.08-9.9,12.63-26.25,10.53-6.81-.85-9.95-2.54-11.26-4.21-1.29-1.62-2.89-2.87-4.76-3.72-1.96-.88-4.33-3.51-6.83-9.92-.25-.66-.49-1.34-.68-2.01-4.49-14.46,4.54-26.01,4.54-26.01l38.33-49.08c4.52-5.79,12.88-6.8,18.65-2.29l24.3,18.98c5.79,4.52,6.81,12.86,2.29,18.65Z"/>
          <path class="cls-4" d="m420.01,49.75c-16.77,13.45-35.65,22.42-55.9,29.21-2.04.68-3.89,1.08-5.53,1.25-4.49-14.46,4.54-26.01,4.54-26.01l38.33-49.08c4.52-5.79,12.88-6.8,18.65-2.29l13.11,10.23c2.03,4.72,3.16,9.7,2.4,14.76-1.33,9.11-8.42,16.18-15.59,21.93Z"/>
          <g>
            <path class="cls-6" d="m184.59,511.88c-29.46,30.88-92.4,13.44-130.22-15.63-22.62-17.94-43.3-45.81-51.09-73.02-5.1-17.76-4.69-35.28,4.33-49.55,22.83-36.09,54.28-45.02,75.68-48.98,21.38-3.94,25.81-16.35,28.75-24.33,2.96-7.96,3.95-33.14,34.01-50.64,30.06-17.5,68.97,8.61,68.97,8.61l16.04,11.63,15.16,12.73s26.18,23.67,26.74,51.73c.12,4.3-.4,8.67-1.67,13.09-9.69,33.4-33.88,40.47-40.89,45.27-7.03,4.79-17.99,12.09-16.64,33.79,1.34,21.72.3,54.4-29.17,85.29Z"/>
            <path class="cls-9" d="m208.68,422.98c-.79-20.67,9.7-27.85,16.43-32.59,6.73-4.73,29.66-12.01,39.53-44.07,9.87-32.05-22.18-61.21-22.18-61.21l-14.01-11.82-14.86-10.73s-36.06-24.02-64.76-6.68c-28.7,17.34-30.21,41.36-33.17,49.03-2.96,7.67-7.39,19.59-27.63,23.84-20.24,4.25-50.09,13.45-72.39,48.35-22.3,34.9,6.76,88.36,41.32,115.8,35,26.87,93.91,42.11,122.36,12.01,28.45-30.09,30.15-61.28,29.36-81.95Z"/>
            <path class="cls-7" d="m184.59,511.88c-29.46,30.88-92.4,13.44-130.22-15.63-13.49-10.7-25.21-23.8-34.64-38.2-4.81-7.35-9.05-15.1-12.39-23.23-.94-2.28-8.01-19.04,1.13-14.63,2.2,1.06,3.32,3.48,4.35,5.69,10.17,21.82,28.51,40.48,48.29,53.62,12.81,8.51,27.33,15.11,42.68,16.09,26.47,1.7,50.26-15.18,59.49-39.14,9.12-23.67,11.25-55.37,32.91-71.89,10.5-8.01,23.94-11.05,35.35-17.7,9.35-5.43,17.25-13.35,22.7-22.69,3.27-5.6,7.29-12.73,13.74-12.12,1.96.17,3.64,1.06,4.99,2.39.12,4.3-.4,8.67-1.67,13.09-9.69,33.4-33.88,40.47-40.89,45.27-7.03,4.79-17.99,12.09-16.64,33.79,1.34,21.72.3,54.4-29.17,85.29Z"/>
            <path class="cls-11" d="m208.68,422.98c-.79-20.67,9.7-27.85,16.43-32.59,6.73-4.73,29.66-12.01,39.53-44.07,9.87-32.05-22.18-61.21-22.18-61.21l-14.01-11.82-14.86-10.73s-36.06-24.02-64.76-6.68c-28.7,17.34-30.21,41.36-33.17,49.03-2.96,7.67-7.39,19.59-27.63,23.84-20.24,4.25-50.09,13.45-72.39,48.35-22.3,34.9,6.76,88.36,41.32,115.8,35,26.87,93.91,42.11,122.36,12.01,28.45-30.09,30.15-61.28,29.36-81.95Z"/>
            <polygon class="cls-5" points="206.18 331.72 177.18 309.08 359.58 80 384.2 99.22 206.18 331.72"/>
            <path class="cls-1" d="m205.91,361.72c-12.46,15.95-35.49,18.79-51.45,6.33-15.95-12.46-18.79-35.49-6.33-51.45,12.46-15.95,35.49-18.79,51.45-6.33,15.95,12.46,18.79,35.49,6.33,51.45Z"/>
            <path class="cls-8" d="m201.38,358.19c-10.51,13.45-29.93,15.84-43.38,5.34-13.45-10.5-15.84-29.93-5.34-43.38,10.51-13.45,29.93-15.84,43.38-5.34,13.45,10.51,15.84,29.93,5.34,43.38Z"/>
            <rect class="cls-2" x="105.65" y="389.65" width="11.36" height="67.27" transform="translate(-290.81 250.52) rotate(-52.01)"/>
            <rect class="cls-8" x="107.92" y="397.72" width="6.82" height="51.14" transform="translate(-290.81 250.52) rotate(-52.01)"/>
            <path class="cls-8" d="m399.55,85.78c-1.84,2.36-5.25,2.78-7.61.94h0c-2.36-1.84-2.78-5.25-.94-7.61l33.62-43.06c1.84-2.36,5.25-2.78,7.61-.94h0c2.36,1.84,2.78,5.25.94,7.61l-33.62,43.06Z"/>
            <path class="cls-8" d="m377.96,68.92c-1.84,2.36-5.25,2.78-7.61.94h0c-2.36-1.84-2.78-5.25-.94-7.61l33.62-43.06c1.84-2.36,5.25-2.78,7.61-.94h0c2.36,1.84,2.78,5.25.94,7.61l-33.62,43.06Z"/>
            <g>
              <line class="cls-10" x1="380.05" y1="100.15" x2="129.33" y2="430.13"/>
              <line class="cls-10" x1="376.46" y1="97.35" x2="123.19" y2="425.34"/>
              <line class="cls-10" x1="371.89" y1="93.79" x2="117.22" y2="420.67"/>
              <line class="cls-10" x1="359.33" y1="83.97" x2="99.97" y2="407.21"/>
              <line class="cls-10" x1="362.92" y1="86.78" x2="106.11" y2="412"/>
              <line class="cls-10" x1="367.48" y1="90.34" x2="112.08" y2="416.66"/>
            </g>
            <rect class="cls-8" x="368.66" y="73.32" width="4.01" height="35.73" transform="translate(70.66 327.21) rotate(-52.02)"/>
          </g>
        </g>
      </g>
    </g>
  </g>
</svg>