<?xml version="1.0" encoding="utf-8"?>
<!-- Generator: Adobe Illustrator 27.4.1, SVG Export Plug-In . SVG Version: 6.00 Build 0)  -->
<svg version="1.1" id="jimi" xmlns="http://www.w3.org/2000/svg" xmlns:xlink="http://www.w3.org/1999/xlink" x="0px" y="0px"
	 viewBox="0 0 126.2 199.7" style="enable-background:new 0 0 126.2 199.7;" xml:space="preserve">
<style type="text/css">
	.st0{fill:#231F20;}
	.st1{fill:#BDBFC0;}
	.st2{fill:#3D3F3F;}
</style>
<g id="Jimi">
	<path id="hair" class="st0" d="M41.8,79.4c-9.2-6.8-16.4-14.9-18.1-26.8c-0.8-5.5-0.8-11,0-16.6c3.7-18.4,19.2-32.6,37-33.3
		c20.7-0.8,37.5,9.5,43,29.4c0.4,1.6,1.1,2.8,1.8,4.2c1,5.3,1.1,10.7,0,16c-2.6,10.3-7.8,18.9-16.3,25.4c-5-1.5-3-5.9-3.5-9.1
		c-1.1-6.5,2.2-13.5-2.2-19.6c-12-1.6-24-1.5-36,0c-3,2.3-1.9,5.7-2.1,8.7c-0.5,7,1.1,14-1.2,20.9C43.5,79.6,42.8,79.8,41.8,79.4z"
		/>
	<path id="face" class="st1" d="M44.5,79.6C44.7,69,44.8,58.3,45,47.7c13.7,0,27.4,0,41-0.1c0.1,8.7,0.3,17.5,0.3,26.2
		c0,12.5-6.8,21.4-17.3,23.1C57.4,98.8,48.4,92.4,44.5,79.6L44.5,79.6z"/>
	<path id="stache" class="st2" d="M53.5,89.7c-0.1-8.5,3.4-13.4,9.9-14c7.3-0.6,11.7,3.6,12.8,12.4C66.7,75.1,63.3,75.3,53.5,89.7z"
		/>
</g>
</svg>
