<?xml version="1.0" encoding="utf-8"?>
<!-- Generator: Adobe Illustrator 27.4.1, SVG Export Plug-In . SVG Version: 6.00 Build 0)  -->
<svg version="1.1" id="john" xmlns="http://www.w3.org/2000/svg" xmlns:xlink="http://www.w3.org/1999/xlink" x="0px" y="0px"
	 viewBox="0 0 93.3 178.4" style="enable-background:new 0 0 93.3 178.4;" xml:space="preserve">
<style type="text/css">
	.st0{fill:#383838;}
	.st1{fill:#6B6B6B;}
	.st2{fill:#BDBEBF;}
	.st3{fill:#838485;}
	.st4{fill:#F1F1F1;}
	.st5{fill:#BDBEC0;}
	.st6{fill:#F3F3F4;}
	.st7{fill:#69696A;}
</style>
<g id="shadow">
	<path class="st0" d="M77.9,68.2c-1.5-14.3-8.2-26.9-13.6-40c-3.6-4.8-7.2-9.7-10.8-14.5v0c-1-1.1-2.1-2.2-3.1-3.3
		c-1.7-0.2-3.3-0.4-5-0.5c-11,5.6-16.3,15.8-20.9,26.5c0.1,0,0.1,0,0.2,0c1.3,3.7-1.1,6.6-2.3,9.6c-5.4,13.6-8.8,27.5-7.7,42.3
		c0.8,11.6,7.2,20.8,16.6,23.7V90.9h0c0.9-5.1,1.1-10.2,1-15.3c0-0.6,0-1.3,0-1.9c-0.6,0.1-1.2,0.1-1.9-0.1v0l0,0h0
		c-0.1-6.2-0.2-12.3-0.4-18.5c-0.1-4.1,1-7.6,4-10.3c0.3-0.2,0.5-0.5,0.8-0.7l0,0c0.1,0.8,0.2,1.5,0.3,2.2c0.2,0.1,0.3,0.1,0.5,0.2
		l1.2-0.5c0.4-1.1,0.7-2.2,1.1-3.3c0.5,0.4,1,0.8,1.4,1.2c-0.5,0.8-1.1,1.6-1.9,2.2c0.7,0.1,1.4,0.2,1.9,0.4c-0.6-0.1-1.2-0.3-2-0.4
		c-0.1,0.1-0.2,0.2-0.3,0.2c-0.5,0.2-1,0.3-1.5,0.2l-0.4,0.2c0,0,0,0,0,0v0c0-0.1,0-0.2,0-0.3c-0.2-0.1-0.3-0.1-0.5-0.2
		c-0.1-0.2-0.3-0.4-0.4-0.6c-3.1,8.9-1.8,18.1-2,27.3c0,0.3,0,0.6,0,0.9c0.3,0,0.5-0.1,0.8-0.2c0.3,5.6,6.3,15.3,11.7,16.6
		c6.3,1.5,9.5-3.4,11.9-8.4c1.5-1.6,2.8-3.3,3.4-5.2c0.1,9.7,0.6,19.5-1.2,29.2c-0.5,2.7-0.4,6.1,2.7,7.5c3.1,1.4,5.3-0.9,7.4-2.8
		c4.8-4.3,8.1-9.6,9.4-15.9C80.1,85.7,78.8,76.9,77.9,68.2z M52.5,45c1.4,2,1.2,4.2,0.5,6.4c-0.3,0.2-0.6,0.3-1,0.4
		C51.5,49.5,52,47.2,52.5,45L52.5,45z M42.8,54.3L42.8,54.3L42.8,54.3c0.1,0,0.1,0,0.1,0v0c0,0,0,0,0.1,0c0,0,0,0,0,0c0,0,0,0,0,0
		C43,54.3,43,54.4,42.8,54.3L42.8,54.3L42.8,54.3C42.9,54.4,42.8,54.4,42.8,54.3C42.8,54.4,42.8,54.3,42.8,54.3L42.8,54.3z
		 M52.3,52.8c0.4,0.4,0.7,0.9,1.1,1.3C52.8,53.9,52.4,53.4,52.3,52.8z M54.3,66.9c1.7-0.1,3.4,0,4.7-1.5h0c1.6-1.7,2.5-3.1,2.9-4.2
		c0,1.8-0.1,3.6-0.1,5.3c0,1,0,1.9,0,2.9C60.4,66.6,55.9,70,54.3,66.9z M61.7,52.4c-0.1-1.1-0.1-2.3-0.2-3.4
		c-0.7-1.9-1.9-3.6-3.2-5.2c-0.3-0.5-0.5-0.9-0.7-1.4c0.2-0.1,0.4-0.2,0.6-0.3c1.2,0.9,2.4,1.9,3.5,2.8C62.5,48,62.6,50.7,61.7,52.4
		z"/>
</g>
<g id="John">
	<g id="hair">
		<path class="st1" d="M25.8,37.2c4.3-10,9.2-19.5,19.5-24.7c1.6,0.2,3.1,0.3,4.7,0.5c1,1,1.9,2.1,2.9,3.1c-2,4.3,0.2,8.2,1.1,12.2
			c1,4.8,4,9.4,1.4,14.5c-4.1,1.1-4-2.6-4.9-4.6c-2.1-5.3-4-10.7-4.4-17.4c0.1,8.6-3,15.2-5.6,21.9c-0.7,1.4-1.6,2.8-2.9,3.8
			c-0.8,0.3-1.6,0.2-2.3-0.2c-0.5-0.7-0.8-1.4-0.9-2.2c2.2-8.9,4.4-17.8,8.4-25.9c-3.8,4.2-7.1,9-10,14.2
			C31.3,35,30.2,38.5,25.8,37.2L25.8,37.2z"/>
		<path class="st2" d="M44.1,15.7c-2,10.5-5.5,19.5-8.6,28.6c-3.5,8.7-2.2,17.8-2.4,26.7c0,0.9,0,1.7,0,2.6c0,4.8-0.1,9.5-1,14.2h0
			v19.8c-8.8-2.7-14.7-11.3-15.5-22.1c-1-13.8,2.2-26.8,7.2-39.4c1.1-2.8,3.3-5.6,2.1-9c3-0.6,3.7-3.3,5-5.5
			C34.4,26.1,37.6,20.3,44.1,15.7z"/>
		<path class="st2" d="M76.1,91.3c-1.2,5.9-4.3,10.8-8.7,14.8c-2,1.8-4,4-6.9,2.6c-2.9-1.3-3-4.4-2.5-7c2.2-11.6,0.8-23.3,1.2-34.9
			c0.1-5.3,0.3-10.6-0.2-15.9c-0.6-1.8-1.7-3.2-2.8-4.7c-0.6-0.9-0.9-1.9-0.8-3l0,0c0-8.1-3.8-15.2-5.7-22.8c-1-4,0.1-4.5,3.4-4.4
			c3.4,4.5,6.7,9,10.1,13.6c5,12.1,11.3,23.9,12.6,37.2C76.5,75,77.8,83.1,76.1,91.3z"/>
	</g>
	<g id="face">
		<path class="st3" d="M31.4,71.9c-0.1-5.7-0.2-11.5-0.4-17.2c-0.1-4.2,1.1-7.7,4.5-10.3c0.1,0.8,0.2,1.6,0.3,2.4
			c0,4.3,1.9,7.2,6.1,8.5c0.3,0.4,0.5,0.8,0.5,1.3c0,0.5-0.1,0.7-0.2,0.7c-1.1,1.7-3.8,1.7-4.5,4.6c6.3,1.8,13.9-2.5,18.9,4
			c-1.1,1.3-2.7,1.2-4.2,1.3c-5,3.4-11.5,0.7-16.5,3.9C34.4,71.7,33,72.3,31.4,71.9L31.4,71.9z"/>
		<path class="st3" d="M42.2,55.8c1.2-4.6,2.2-9.2-4.9-9.7c0.3-1,0.7-2.1,1-3.1c3.6,3.1,7.4,5.7,12.5,4.3c1.3,1.8,1.1,3.8,0.4,5.7
			C48.4,54.5,45.2,55,42.2,55.8L42.2,55.8L42.2,55.8z"/>
	</g>
	<g id="eyes">
		<path class="st4" d="M42.2,55.8c-8.8-0.5-9.5-1.5-6.4-9.1l1.5-0.6C44.8,47.1,46,49.5,42.2,55.8z"/>
		<path class="st4" d="M51.6,55.6c-0.5-0.2-0.9-0.6-1-1.2c-0.8-2.4-0.3-4.7,0.2-7c0.9-2.4,3.5-1.5,5.1-2.6c1.1,0.8,2.1,1.7,3.2,2.5
			C60.6,53.6,59.2,57.4,51.6,55.6z"/>
	</g>
	<path id="mouth" class="st5" d="M33.9,70.3c5.7-4,12.1-3.6,18.5-3.2c1.5,2.9,5.8-0.5,6.8,2.6c1.2,3.7-0.6,7-3.3,9.7
		c-2.3,4.7-5.2,9.2-11.1,7.8C39.2,86,32.9,75.1,33.9,70.3L33.9,70.3z"/>
	<path id="nose" class="st6" d="M50.7,54.4c0.3,0.4,0.7,0.8,1,1.2c4.2,2.2,12,2.6,5,10.2c-5.1-0.7-9.9-3.7-15.4-1.2
		c-3.4,1.5-6.3,1.1-7-3.3c-0.8-5.2,3.1-3.4,5.6-3.7c1.1-0.1,2-0.6,2.3-1.8c3.1-0.9,2.5-4.3,4.2-6.1C49.2,50,47.4,54.5,50.7,54.4
		L50.7,54.4z"/>
	<path id="teeth" class="st7" d="M48.3,76.8c-4.8,0-9-0.8-9-4.1c0-3.1,4.5-2.6,7.2-2.7c2.7,0,6.9-0.4,7,2.9
		C53.7,75.6,49.9,76.8,48.3,76.8z"/>
</g>
</svg>
