<?xml version="1.0" encoding="utf-8"?>
<!-- Generator: Adobe Illustrator 27.4.1, SVG Export Plug-In . SVG Version: 6.00 Build 0)  -->
<svg version="1.1" id="kurt" xmlns="http://www.w3.org/2000/svg" xmlns:xlink="http://www.w3.org/1999/xlink" x="0px" y="0px"
	 viewBox="0 0 97.6 182" style="enable-background:new 0 0 97.6 182;" xml:space="preserve">
<style type="text/css">
	.st0{fill:#545454;}
	.st1{fill:#F9F8F8;}
	.st2{fill:#F6F5F5;}
	.st3{fill:#F8F7F7;}
	.st4{fill:#CECDCD;}
	.st5{fill:#F6F5F4;}
	.st6{fill:#F1F0F0;}
	.st7{fill:#262626;}
	.st8{fill:#232323;}
</style>
<g id="Kurt">
	<path class="st0" d="M22,78c0.3-7.1-0.2-18,0-28.8s0.9-21.7,3.5-28.6c0.8-2,1.5-3.9,2.4-5.9c0.9-1.9,1.8-3.8,2.8-5.6
		c3.5-5.9,9.9-8.9,16.4-9.1s13.1,2.4,16.9,7.7c3.4,4.7,5.8,9.6,7.7,14.8s3,10.6,3.7,16.2c0.3,4.8,0.5,11.1,0.4,17.4
		c-0.1,6.3-0.4,12.6-0.8,17.4c-0.5,2-3.7,4.3-6.6,6.4s-10.8,4.5-12.4,8.6"/>
	<path class="st1" d="M61.8,55.7c-0.3,4.6,0.3,9.9-4.4,13.2c-7.4,5.6-18.7,4-23.8-3.3c-3.9-5.6-2.1-12.5,4.2-14.5c3-1,5.2-2.5,7-4.9
		c1.9-1.7,3.1-5.1,6.5-2.4c0.3,0.8,0.1,1.5-0.5,2h0c-0.3,3.4,2,5,4.4,6.8C57.3,54.1,62.1,51.1,61.8,55.7z"/>
	<path class="st2" d="M59.5,29.1C55,19.5,47.4,12.1,41,3.1c7.9-2.4,14.4-1.3,19.3,4.5c6.3,7.5,12,15.4,9.9,26.2
		C65.8,34.2,61.5,34.2,59.5,29.1L59.5,29.1z"/>
	<path class="st3" d="M35.2,30.7c0.8-7.6,3.7-14.5,6.1-22.5c6.6,6.8,11.2,14,16.1,21c0,7.4-5.6,6.9-10.5,7.6
		C43.1,34.6,38.5,33.9,35.2,30.7z"/>
	<path class="st4" d="M71.5,45.9c0,2.7-1.7,3.4-4,3.2c-0.1,0-0.1,0-0.1,0c0,0.2-0.1,0.3-0.2,0.5c-6.4,3-12.2,3.2-16.4-3.8
		c-0.1-0.3,0-0.6,0.1-0.9c0.5,0.7,1.1,0.9,1.9,0.5c0.2-0.2,0.4-0.4,0.5-0.6c3.9,0.8,8,1,11.6,3.2c0.1,0,0.1,0,0.2,0
		c-0.1-0.3-0.2-0.7-0.1-1c0.7-3.5,2.7-7.6-2.8-9.1c-4.6-1.2-6.8,1.6-8.1,5.5c-0.2,0.5-0.4,1-0.8,1.4c-0.8,0-1.6,0-2.4,0l0,0
		c-2.8-2.7-2.7,1.4-4.2,1.8c-1.2-1.8-3.1,1.4-4.3-0.7c-1.9-3.7-2-9.4-8.6-8.2c-2,0.4-3.9,1.5-3.3,3.6c1.5,5.5,6.3,4.5,10.4,4.6
		c0.9,0.2,1.5,1.1,2.8,1.3c-3.1,7.3-8.9,4.8-14.3,4c-1.1-0.7-1.9-1.7-2.1-3c-6-10.5-4.9-13.2,6-14.7c0,0,0,0,0,0
		c4.1-2.1,7.8-0.6,11.4,1.3c0.1,0.1,0.2,0.1,0.2,0.2c0.5-0.1,1,0,1.5,0.2c0,0,0,0,0,0l0,0l0,0c4.9,0.2,8.2-2.5,10.9-6.2
		c0.7,0,1.4,0,2.1-0.1c2.6,3.7,7.8,1.8,10.7,4.7c0.1,0.5,0.1,1,0.1,1.5C74.7,38.4,71.7,42.3,71.5,45.9z"/>
	<path class="st4" d="M53.3,44.9c-0.2,0.2-0.3,0.4-0.5,0.6c-0.8,0.3-1.4,0.1-1.9-0.5C51.7,44.9,52.5,44.9,53.3,44.9z"/>
	<path class="st4" d="M46.5,35.3L46.5,35.3L46.5,35.3C46.5,35.3,46.5,35.3,46.5,35.3C46.5,35.3,46.5,35.3,46.5,35.3z"/>
	<path class="st5" d="M67.5,48.4c1.8-0.2,3.4-0.5,4-2.5c4,4.5,1,9.9,1.6,14.8c0.4,3.1,0,6.3-0.1,9.5c-0.2,3.8-3.2,5.2-6,6.8
		c-1.8,1.5-3.5,2.9-7.1,5.9C64,70.8,61,59.3,67.1,49.6c-0.6-0.4-0.7-0.8-0.4-1C66.9,48.5,67.2,48.4,67.5,48.4L67.5,48.4z"/>
	<path class="st2" d="M39.6,4.6c-5.2,9.1-1.7,22.3-14.4,30.3C26.6,21.6,29.4,11.4,39.6,4.6z"/>
	<path class="st6" d="M28.4,49.4c3.3,9.1,3.1,18.3,0.4,27.5c-8.2-8.2-3.7-18.3-4.1-27.6c0-0.2,1.8-0.6,2.7-0.9
		C27.8,48.7,28.2,49,28.4,49.4L28.4,49.4z"/>
	<path class="st4" d="M53.3,44.9c-0.2,0.2-0.3,0.4-0.5,0.6c-0.8,0.3-1.4,0.1-1.9-0.5C51.7,44.9,52.5,44.9,53.3,44.9z"/>
	<g id="lens">
		<path class="st7" d="M64.9,48.1c-4.4,0.8-8.7,1.5-11.6-3.2c-1.2-4.2,0-7.7,4.1-9c3.5-1.1,7.6-1.4,10.1,2.4
			C70.2,42.3,67.2,45.2,64.9,48.1z"/>
		<path class="st8" d="M34.7,48.6c-4.3-1-7.4-3.7-7.3-8c0.1-3.3,3.4-5.1,6.8-5.3c4.3-0.2,8.1,0.7,8.8,5.8c0.2,1.8-0.1,3.6-0.2,5.5
			L34.7,48.6z"/>
	</g>
</g>
</svg>
