<?xml version="1.0" encoding="UTF-8"?>
<svg id="Layer_2" data-name="Layer 2" xmlns="http://www.w3.org/2000/svg" viewBox="0 0 113.95 314.5">
  <defs>
    <style>
      .cls-1 {
        fill: #e7dbc1;
      }

      .cls-2 {
        fill: #fff;
      }

      .cls-3 {
        fill: #85666f;
      }

      .cls-4 {
        fill: #c5afb9;
      }

      .cls-5 {
        fill: #15080c;
      }

      .cls-6 {
        fill: #1c080d;
      }

      .cls-7 {
        fill: #543038;
      }

      .cls-8 {
        fill: #27161a;
      }
    </style>
  </defs>
  <g id="Capa_1" data-name="Capa 1">
    <g id="Mic">
      <g>
        <path class="cls-4" d="m63.61,314.5l3.11-175.59c.1-5.58-4.27-10.1-9.76-10.2-5.58-.1-10.1,4.27-10.2,9.84l-3.11,175.59,19.95.35Z"/>
        <path class="cls-3" d="m45.85,175.15c-.14,8.19,19.86,21.59,19.86,21.59l.8-30.28s-20.52.58-20.66,8.69Z"/>
        <path class="cls-1" d="m54.29,314.33c2.5-60.81,4.19-117.72,4.19-117.72-2.91-4.96-8.75-15.45-12.37-21.37l-2.46,138.9,10.63.19Z"/>
        <polygon class="cls-2" points="48.79 314.23 52.5 174.74 46.12 175.24 43.66 314.14 48.79 314.23"/>
        <path class="cls-3" d="m65.92,184.38l-.23,12.78c-8.92,1.67-16.65.26-19.94-.93l.17-9.85,10.05-1.48,9.95-.52Z"/>
        <path class="cls-6" d="m101.44,43.81l-1.27,71.98c-.42,23.61-20.1,42.62-43.72,42.2-23.7-.42-42.7-20.11-42.29-43.72l1.27-71.98C15.85,18.68,35.54-.41,59.24,0c5.84.1,11.48,1.42,16.58,3.69l.09.09c5.1,2.27,9.67,5.49,13.43,9.39,7.62,7.98,12.31,18.87,12.1,30.63Z"/>
        <path class="cls-8" d="m47.42,101.61c-13.88,1.15-24.28-2.35-30.67-5.51-.78-.36-1.55-.81-2.24-1.17l.93-52.63C15.85,18.68,35.54-.41,59.24,0c.52,0,1.13.02,1.65.12h.09c5.23.27,10.26,1.58,14.84,3.58l.09.09c18.79,26.74-4.05,95.9-28.49,97.82Z"/>
        <path class="cls-1" d="m105.59,109.87l-.34,19.08c-.41,23.09-17.22,42.32-39,46.64-3.32.64-6.64.93-10.13.87-3.4-.06-6.79-.47-10-1.22h-.09c-1.39-.29-2.78-.75-4.08-1.21-11.09-3.6-20.38-11.08-26.3-20.95-4.66-7.58-7.21-16.34-7.04-25.84l.34-19.08,96.64,1.71Z"/>
        <path class="cls-1" d="m113.95,115.25l-.4,22.39c-.55,31.28-26.54,56.36-57.73,55.81-3.31-.06-6.53-.38-9.66-1.04-15.81-2.98-29.24-12.55-37.38-25.68C3.02,157.83-.19,147.05,0,135.64l.4-22.39,8.45.15-.34,19.08c-.41,22.92,15.37,42.46,36.72,47.81,3.47.85,7.04,1.34,10.78,1.41,26.58.47,48.66-20.93,49.13-47.51l.34-19.08,8.45.15Z"/>
        <path class="cls-4" d="m113.95,115.25l-.4,22.39c-.55,31.28-26.54,56.36-57.73,55.81-3.31-.06-6.53-.38-9.66-1.04-15.81-2.98-29.24-12.55-37.38-25.68.66-7.83,1.47-14.18,1.47-14.18,0,0,5.21,25.55,34.99,27.73,3.47.85,7.04,1.34,10.78,1.41,17.6.31,33.19-8.91,41.9-22.97v-.09c4.49-7.16,7.07-15.48,7.23-24.45l.34-19.08,8.45.15Z"/>
        <path class="cls-2" d="m52.74,160.77c-36.91-2.18-37.72-45.73-37.72-45.73l-6.18-.42.11-6.45,75.9,1.34c5.19,21.97-1.82,53.05-32.11,51.26Z"/>
        <path class="cls-2" d="m46.16,192.41C19.49,187.32-.49,163.61,0,135.64l.4-22.39,8.45.15-.07,3.92s-11.5,56.34,37.37,75.1Z"/>
        <path class="cls-4" d="m105.59,109.87l-.34,19.08c-.41,23.09-17.22,42.32-39,46.64-3.32.64-6.64.93-10.13.87-3.4-.06-6.79-.47-10-1.22,62.65-2.59,51.37-65.51,51.37-65.51l8.1.14Z"/>
        <path class="cls-4" d="m41.95,174.03c-11.09-3.6-20.38-11.08-26.3-20.95-4.66-7.58-7.21-16.34-7.04-25.84l.21-11.68c.53-.6.8-.94.8-.94,0,0,3.12,45.12,32.33,59.41Z"/>
        <path class="cls-3" d="m110.55,115.19s2.06,39.65-12.63,43.53v-.09c4.49-7.16,7.07-15.48,7.23-24.45l.34-19.08,5.05.09Z"/>
        <g>
          <g>
            <path class="cls-5" d="m44.41,17.49c-.06,3.19-2.68,5.72-5.87,5.67-3.19-.06-5.72-2.68-5.67-5.87.06-3.19,2.68-5.72,5.87-5.67,3.18.06,5.72,2.68,5.66,5.87Z"/>
            <path class="cls-5" d="m44.05,38.14c-.06,3.19-2.68,5.72-5.87,5.67-3.18-.06-5.72-2.68-5.66-5.87.06-3.18,2.68-5.72,5.87-5.66,3.19.06,5.72,2.68,5.67,5.87Z"/>
            <path class="cls-5" d="m43.68,58.79c-.06,3.18-2.68,5.72-5.87,5.66-3.19-.06-5.72-2.68-5.67-5.87.06-3.18,2.68-5.72,5.87-5.66,3.18.06,5.72,2.68,5.66,5.87Z"/>
            <path class="cls-5" d="m43.32,79.45c-.06,3.18-2.68,5.72-5.87,5.66-3.18-.06-5.72-2.68-5.66-5.87.06-3.18,2.68-5.72,5.87-5.67s5.72,2.68,5.67,5.87Z"/>
            <path class="cls-5" d="m42.95,100.1c-.06,3.19-2.68,5.72-5.87,5.67-3.19-.06-5.72-2.68-5.67-5.87.06-3.19,2.68-5.72,5.87-5.67,3.18.06,5.72,2.68,5.66,5.87Z"/>
          </g>
          <g>
            <path class="cls-5" d="m63.84,17.83c-.06,3.18-2.68,5.72-5.87,5.67-3.18-.06-5.72-2.68-5.66-5.87.06-3.18,2.68-5.72,5.87-5.66,3.19.06,5.72,2.68,5.67,5.87Z"/>
            <path class="cls-5" d="m63.47,38.48c-.06,3.18-2.68,5.72-5.87,5.66-3.19-.06-5.72-2.68-5.67-5.87.06-3.18,2.68-5.72,5.87-5.67,3.18.06,5.72,2.68,5.66,5.87Z"/>
            <path class="cls-5" d="m63.11,59.14c-.06,3.18-2.68,5.72-5.87,5.66-3.18-.06-5.72-2.68-5.66-5.87.06-3.19,2.68-5.72,5.87-5.67,3.18.06,5.72,2.68,5.67,5.87Z"/>
            <path class="cls-5" d="m62.74,79.79c-.06,3.19-2.68,5.72-5.87,5.67-3.19-.06-5.72-2.68-5.67-5.87.06-3.18,2.68-5.72,5.87-5.66,3.18.06,5.72,2.68,5.66,5.87Z"/>
            <path class="cls-5" d="m62.38,100.44c-.06,3.18-2.68,5.72-5.87,5.67-3.18-.06-5.72-2.68-5.66-5.87.06-3.18,2.68-5.72,5.87-5.66,3.18.06,5.72,2.68,5.67,5.87Z"/>
          </g>
          <g>
            <path class="cls-5" d="m83.26,18.17c-.06,3.18-2.68,5.72-5.87,5.66-3.19-.06-5.72-2.68-5.67-5.87.06-3.19,2.68-5.72,5.87-5.67,3.18.06,5.72,2.68,5.66,5.87Z"/>
            <path class="cls-5" d="m82.9,38.83c-.06,3.19-2.68,5.72-5.87,5.67-3.18-.06-5.72-2.68-5.66-5.87.06-3.19,2.68-5.72,5.87-5.67,3.19.06,5.72,2.68,5.67,5.87Z"/>
            <path class="cls-5" d="m82.53,59.48c-.06,3.18-2.68,5.72-5.87,5.67-3.19-.06-5.72-2.68-5.67-5.87.06-3.18,2.68-5.72,5.87-5.66,3.18.06,5.72,2.68,5.66,5.87Z"/>
            <path class="cls-5" d="m82.17,80.13c-.06,3.18-2.68,5.72-5.87,5.66-3.18-.06-5.72-2.68-5.66-5.87.06-3.18,2.68-5.72,5.87-5.66,3.18.06,5.72,2.68,5.67,5.87Z"/>
            <path class="cls-5" d="m81.8,100.79c-.06,3.18-2.68,5.72-5.87,5.66-3.19-.06-5.72-2.68-5.67-5.87.06-3.19,2.68-5.72,5.87-5.67,3.18.06,5.72,2.68,5.66,5.87Z"/>
          </g>
          <g>
            <path class="cls-5" d="m99.2,39.12c-.06,3.19-2.68,5.72-5.87,5.67-3.19-.06-5.72-2.68-5.67-5.87.06-3.19,2.68-5.72,5.87-5.67,3.19.06,5.72,2.68,5.67,5.87Z"/>
            <path class="cls-5" d="m98.83,59.77c-.06,3.19-2.68,5.72-5.87,5.67-3.18-.06-5.72-2.68-5.66-5.87.06-3.18,2.68-5.72,5.87-5.66s5.72,2.68,5.66,5.87Z"/>
            <path class="cls-5" d="m98.47,80.42c-.06,3.18-2.68,5.72-5.87,5.66-3.19-.06-5.72-2.68-5.67-5.87.06-3.18,2.68-5.72,5.87-5.66,3.19.06,5.72,2.68,5.67,5.87Z"/>
            <path class="cls-5" d="m98.1,101.08c-.06,3.18-2.68,5.72-5.87,5.66-3.18-.06-5.72-2.68-5.66-5.87.06-3.18,2.68-5.72,5.87-5.67,3.18.06,5.72,2.68,5.66,5.87Z"/>
          </g>
          <g>
            <path class="cls-5" d="m29.19,37.88c-.06,3.19-2.68,5.72-5.87,5.67-3.19-.06-5.72-2.68-5.67-5.87.06-3.18,2.68-5.72,5.87-5.66,3.18.06,5.72,2.68,5.66,5.87Z"/>
            <path class="cls-5" d="m28.83,58.53c-.06,3.18-2.68,5.72-5.87,5.67-3.18-.06-5.72-2.68-5.66-5.87.06-3.18,2.68-5.72,5.87-5.66,3.18.06,5.72,2.68,5.66,5.87Z"/>
            <path class="cls-5" d="m28.46,79.19c-.06,3.18-2.68,5.72-5.87,5.66-3.19-.06-5.72-2.68-5.67-5.87.06-3.18,2.68-5.72,5.87-5.67,3.19.06,5.72,2.68,5.67,5.87Z"/>
            <path class="cls-5" d="m28.1,99.84c-.06,3.18-2.68,5.72-5.87,5.66-3.18-.06-5.72-2.68-5.66-5.87.06-3.19,2.68-5.72,5.87-5.67,3.18.06,5.72,2.68,5.66,5.87Z"/>
          </g>
        </g>
        <path class="cls-7" d="m60.89.12c-25.52,1.91-42.21,22.68-43.3,41.47-.88,14.99-.88,66.71-.88,66.71-.79-.01-1.69-.03-2.44-.04l1.17-65.96C15.85,18.68,35.54-.41,59.24,0c.52,0,1.13.02,1.65.12Z"/>
      </g>
      <rect class="cls-4" x="37.45" y="204.53" width="34.77" height="15.58" transform="translate(3.76 -.94) rotate(1.01)"/>
      <rect class="cls-1" x="37.45" y="204.41" width="20.62" height="15.58" transform="translate(3.76 -.81) rotate(1.01)"/>
      <rect class="cls-4" x="37.45" y="204.22" width="4.36" height="15.62" transform="translate(3.76 -.67) rotate(1.02)"/>
      <rect class="cls-2" x="41.11" y="204.28" width="4.36" height="15.62" transform="translate(3.76 -.73) rotate(1.01)"/>
      <rect class="cls-3" x="45.7" y="193.45" width="19.96" height="11.09" transform="translate(3.53 -.95) rotate(1.01)"/>
      <rect class="cls-3" x="45.29" y="220.12" width="19.96" height="3.89" transform="translate(3.93 -.94) rotate(1.01)"/>
    </g>
  </g>
</svg>