<?xml version="1.0" encoding="UTF-8"?>
<svg xmlns="http://www.w3.org/2000/svg" viewBox="0 0 356.89 415.29">
  <defs>
    <style>
      .cls-1 {
        fill: #ed8c1d;
      }

      .cls-2 {
        fill: #ffdc50;
      }

      .cls-3 {
        fill: #f39200;
      }

      .cls-4 {
        fill: #fbb920;
      }

      .cls-5 {
        fill: #452944;
      }

      .cls-6 {
        fill: #573755;
      }

      .cls-7 {
        fill: #e3620e;
        opacity: .41;
      }

      .cls-7, .cls-8 {
        mix-blend-mode: multiply;
      }

      .cls-8 {
        fill: #8163a8;
        opacity: .61;
      }

      .cls-9 {
        isolation: isolate;
      }
    </style>
  </defs>
  <g class="cls-9">
    <g id="Layer_2" data-name="Layer 2">
      <g id="Capa_1" data-name="Capa 1">
        <g id="Saxophone">
          <g>
            <g>
              <g>
                <path class="cls-4" d="m298.93,47.91l-2.27,9.58c-6.49-.84-11.96-2.44-16.71-4.53-2.27-1-4.4-2.11-6.41-3.3-3.15-1.86-6.02-3.91-8.74-6.04-1.06-.82-2.11-1.66-3.13-2.52-4.44-3.62-8.66-7.33-13.39-10.54-.78-.53-1.56-.98-2.33-1.33-13.06-6.16-23.44,11.14-23.44,11.14-9.81,12.08-30.34,153.13-33.54,172.48-.04.31-.1.63-.16.98-.1.66-.2,1.37-.35,2.19-.02.14-.04.31-.06.45-.08.45-.14.94-.23,1.45-.08.53-.16,1.09-.27,1.68-5.06,31.92-21.83,136.42-49.47,174.75-.45.63-.94,1.27-1.43,1.88-1.64,2.07-3.42,3.95-5.28,5.63-.96.9-1.97,1.74-2.99,2.52-2.09,1.62-4.28,3.03-6.55,4.26-3.6,1.94-7.41,3.44-11.38,4.48-.27.08-.53.16-.8.22-12.33,3.13-25.88,2.25-38.31-1.33-.92-.27-1.84-.55-2.76-.86-.31-.1-.63-.2-.94-.33-9.11-3.07-17.44-7.6-24.02-13-.35-.29-.7-.57-1.02-.86-1.47-1.29-2.91-2.62-4.32-4.07-1.25-1.29-2.46-2.62-3.6-4.01-2.13-2.54-4.07-5.24-5.84-8.11-13.04-21.13-16.22-50.82-4.61-86.32,3.95-12.12,8.48-22.56,9.28-32.58.2-2.58.33-5.1.39-7.51.18-8.15-.41-15.29-1.27-21.19-.96-6.41-2.23-11.36-3.19-14.5-.18-.61-.35-1.17-.51-1.64-.49-1.49-.82-2.27-.82-2.27-.49.06-.98.12-1.45.18,0,0-.02.02-.06.02-9.28,1.17-16.44,1.76-21.03.35-7.1-2.19-8.09-9.11-1.29-25.96,14.97-37.14,72.09-63.9,98.12-58.35,6.94,1.47,10.5,4.3,12.02,7.66.35.78.59,1.58.74,2.4,1.58,8.72-7.41,19.47-7.94,20.11h-.02v.02c.08.59.16,1.21.23,1.8.06.49.12,1,.18,1.49.02.31.06.66.12,1,1.99,16.48,2.56,34.97,1.37,53.42-.1,1.62-.23,3.23-.35,4.83-.14,1.62-.27,3.21-.43,4.83-.16,1.6-.33,3.21-.51,4.81-1.31,11.18-3.3,22.15-6.04,32.45v.02c-.39,1.41-.78,2.81-1.19,4.2-.02.08-.04.16-.06.25-.43,1.41-.86,2.81-1.31,4.2-2.74,8.52-6.08,16.44-10.05,23.46-14.54,25.78-11.06,47.69-11.06,47.69,1.21,2.68,2.46,4.89,3.75,6.7,8.33,11.67,17.81,5.73,22.64-.51l.02-.02c.29-.39.55-.76.8-1.15.27-.39.51-.78.74-1.15.06-.1.14-.25.2-.39,4.69-8.82,30.86-81.31,61.42-209.15,0,0,0-.02.02-.04,2.56-10.75,5.16-21.91,7.78-33.46.04-.18.08-.35.12-.53,1.62-7.02,3.21-14.21,4.83-21.54C193.63,25.92,216.15,6.15,216.15,6.15c5.63-3.54,10.73-5.41,15.4-5.96h.08c12.98-1.56,22.5,6.8,30.24,16.22.94,1.13,1.84,2.27,2.74,3.44.02.02.02.04.02.04,4.07,5.28,7.66,10.56,11.04,14.33,6.94,7.74,23.26,13.7,23.26,13.7Z"/>
                <path class="cls-7" d="m279.95,52.97c-2.27-1-4.4-2.11-6.41-3.3,1.6.23,3.15.53,4.5,1.39.78.49,1.41,1.15,1.9,1.9Z"/>
                <path class="cls-8" d="m245.94,29.24c-6.29-2.97-11.96-.49-16.13,2.87-.04.02-.08.08-.14.12-.18.14-.37.29-.55.47-.29.23-.55.47-.82.72-.16.12-.33.29-.51.45-3.32,3.21-5.28,6.51-5.28,6.51-1.17,1.43-2.5,4.71-3.91,9.4-1.45,4.75-3.01,10.95-4.63,18.18-10.13,45.27-22.56,130.2-25,144.9-.04.31-.1.63-.16.98-.1.66-.2,1.37-.35,2.19-.02.14-.04.31-.06.45-.08.45-.14.94-.23,1.45-.08.53-.16,1.09-.27,1.68-5.06,31.92-21.83,136.42-49.47,174.75-.45.63-.94,1.27-1.43,1.88-2.27,2.81-4.93,5.45-7.84,7.8-.29.23-.43.35-.43.35-5.61,4.34-11.98,7.25-18.73,8.97-12.33,3.13-25.88,2.25-38.31-1.33-.8-.53-1.78-.68-2.76-.86-.39-.08-.8-.16-1.19-.29.08,0,.16-.02.25-.04,2.58-.23,5-1.23,7.06-3.44,4.93-5.26,3.95-12.74,2.23-19.08-.16-.61-.33-1.23-.53-1.82-.29-1.09-.63-2.15-1-3.19-2.15-6.51-4.77-12.86-5.77-19.7-.06-.49-.27-.92-.55-1.31l12.76-9.95c9.38,13.12,20.19,3.99,24.2-2.83,4.03-6.82,30.55-79.59,61.63-209.54,0,0,0-.02.02-.04.92-1.9,19.41-59.05,30.12-78.4,12.55-22.65,31.61-41.07,47.81-32.31Z"/>
                <path class="cls-5" d="m218.59,49.78c-1.45,4.75-3.01,10.95-4.63,18.18-10.13,45.27-22.56,130.2-25,144.9-.04.31-.1.63-.16.98-.1.66-.2,1.37-.35,2.19-.02.14-.04.31-.06.45-.08.45-.14.94-.23,1.45-.08.53-.16,1.09-.27,1.68-5.06,31.92-21.83,136.42-49.47,174.75-.45.63-.94,1.27-1.43,1.88-2.27,2.81-4.93,5.45-7.84,7.8-.29.23-.31.28-.43.35-38.02,23.26-58.84-21.35-58.84-21.35v-2.16l5.85,2.42,12.86-24.47,15.48,13.7s12.8-5,12.82-5c3.73-1.45,7.84-1.17,11.96-1.43,2.31-.16,4.63-.51,6.86-1.45,7.64-3.24,14.09-9.44,17.24-17.16,3.3-8.11,3.13-17.3,6.22-25.51,2.27-6.04,6.29-11.51,7.13-17.89.84-6.29-1.56-12.63-1.11-18.96.84-11.67,11.02-20.97,12.39-32.6.88-7.47-2.01-15.01-1.09-22.46,1-8.07,6.31-14.95,8.58-22.75,2.25-7.76,1.45-16.01,1.64-24.08.74-33.39,18.55-64.58,19.57-97.93.23-7.1-.31-14.31,1.45-21.19,1.54-6,5.32-11.9,10.85-14.35Z"/>
                <path class="cls-3" d="m28.74,214.7c.27-.06.53-.14.8-.23-.35.1-.61.18-.8.23Z"/>
                <path class="cls-3" d="m29.56,218.04c.08.2.14.43.23.66h-.02c-.06-.23-.14-.45-.2-.66Z"/>
                <path class="cls-3" d="m63.39,199.2c-10.32,6.2-19.39,10.18-25.72,12.55,7.49-2.87,16.48-7.13,25.72-12.55Z"/>
                <path class="cls-4" d="m208.57,45.79c-12.06,19.1-25.18,72.19-35.42,120.74l-9.28,2.01-2.52.55-.92,3.4,2.44-.14,9.17-.53c-1.49,7.23-2.93,14.31-4.28,21.13l-10.42.37-2.42.08-.94,3.42,2.37.12,10.52.49c-1.51,7.76-2.93,15.13-4.2,21.89l-13.04,3.05-1.88.43-.94,3.4h14.6c-1.58,8.46-2.89,15.75-3.89,21.36l-14.35-.66-1.86-.08-.92,3.4,1.84.23,14.45,1.78c-.16.96-.33,1.84-.47,2.64-1.06,5.92-2.09,12.18-3.15,18.55l-17.28,1.39-2.44.2-.94,3.4,2.38.2,17.16,1.51c-1.37,8.25-2.78,16.5-4.34,24.26l-19.7-.66-4.03-.12-.92,3.42,3.79.63,19.47,3.3v.02c-1.76,7.78-4.05,15.27-7.82,22.03l-20.13-.7-2.6-.08-.94,3.42,1.97.49,16.73,4.14c-2.17,2.68-4.71,5.18-7.68,7.47-2.91,2.25-5.41,3.28-8.85,4.01-1.13.25-7.47.04-10.5,0-.82,0-1.39.02-1.56.06-.02-.02-.04,0-.04,0,.29-.37.57-.76.84-1.15.27-.39.51-.78.74-1.15.06-.1.14-.25.2-.39,4.89-9.77,38.72-115.42,69.23-242.65.04-.18.08-.35.12-.53.08-.33.16-.68.25-1,3.26-10.26,6.88-19.31,10.5-27.07t0-.04c13.51-28.89,27.05-40.23,21.91-32.06Z"/>
                <path class="cls-7" d="m254.92,24.98c.3,2.1.45,4.24.86,6.33.75,3.9,2.73,6.76,5.59,9.37-4.5-3.07-8.54-7-13.09-10.11-.78-.53-1.56-.98-2.33-1.33-13.06-6.16-23.44,11.14-23.44,11.14-9.81,12.08-30.34,153.13-33.54,172.48-.04.31-.1.63-.16.98-.1.66-.2,1.37-.35,2.19-.02.14-.04.31-.06.45-.08.45-.14.94-.23,1.45-.08.53-.16,1.09-.27,1.68-5.06,31.92-21.83,136.42-49.47,174.75-.45.63-.94,1.27-1.43,1.88-1.64,2.07-3.42,3.95-5.28,5.63-.96.9-1.97,1.74-2.99,2.52-2.09,1.62-4.28,3.03-6.55,4.26-3.71.76-7.9,3.38-11.38,4.48-.27.08-.53.16-.8.22-12.33,3.13-25.88,2.25-38.31-1.33-.92-.27-1.84-.55-2.76-.86-.31-.1-.63-.2-.94-.33-9.11-3.07-17.44-7.6-24.02-13-.35-.29-.7-.57-1.02-.86-1.47-1.29-2.91-2.62-4.32-4.07-1.25-1.29-2.46-2.62-3.6-4.01-2.13-2.54-4.07-5.24-5.84-8.11,4.63.49,9.52.12,12.1-3.5,2.95-4.16.92-9.79-.31-14.72-2.19-8.78-1.31-18.26,2.29-26.54,3.46-7.92,5.75-16.28,9.52-24.14,5.45-11.3,25.43-32.1,20.04-45.52-.94-2.29-2.58-4.28-4.61-5.71-2.29-1.62-5.08-2.56-7.86-2.48-3.81.08-7.33,1.8-10.95,2.91-3.62,1.13-7.86,1.56-10.95-.63-1.72-1.21-2.85-3.09-3.75-5.02-.16-.35-.33-.7-.47-1.06.18-8.15-.41-15.29-1.27-21.19,1.37-5.28,4.05-10.24,7.84-14.19-.25-.25-.47-.49-.68-.76-.96-1.27-1.72-2.78-3.05-3.69-2.95-2.03-7.15-.14-10.5-1.37-2.25-.8-3.83-2.93-4.59-5.22-.76-2.27-.8-4.71-.84-7.1-.04-2.5-.06-5.1.9-7.39.84-1.97,2.35-3.58,3.28-5.51,1-2.03,1.33-4.34,2.03-6.49,1.49-4.57,4.83-8.5,9.09-10.73,2.76-1.43,5.9-2.19,8.46-3.97,2.66-1.84,4.46-4.65,6.65-7.04,5.59-6.12,13.57-9.52,21.58-11.75,7.98-2.21,16.26-3.46,24.08-6.25,5.67-2.01,11.67-4.85,17.42-3.09.04,0,.06.02.1.04.35.78.59,1.58.74,2.4,1.58,8.72-7.41,19.47-7.96,20.13.08.59.16,1.21.23,1.8.06.49.12,1,.18,1.49.02.31.06.66.12,1,2.89,17.34,2.54,35.89,1.37,53.42-.02.45-.06.88-.08,1.33-.08,1.17-.16,2.33-.27,3.5-.14,1.62-.27,3.21-.43,4.83-.16,1.6-.33,3.21-.51,4.81-1.25,10.93-3.17,21.81-6.04,32.47-.39,1.41-.78,2.81-1.19,4.2-.02.08-.04.16-.06.25-.43,1.41-.86,2.81-1.31,4.2-5.65,8.33-11.88,16.38-15.56,25.96-6.33,16.5-11.34,34.15-9.11,51.7,1.64,12.67,4.93,30.1,21.25,29.12,6.76-.41,13.15-4.79,15.95-10.95,2.22-4.86,2.25-10.42,4.65-15.09,2.11-4.1,4.46-7.16,5.73-11.81,2.21-8.1,2.48-17.28,8.11-24.01,2.75-3.28,6.59-5.63,8.85-9.26,4.69-7.54,1.02-17.37,2.27-26.16,1.53-10.73,10.33-19.27,12.23-29.94,1.3-7.32-.79-14.76-1.15-22.18-1.03-21.48,12.24-40.62,20.4-60.52,1.59-3.89,3.03-8.02,2.67-12.21-.22-2.6-1.12-5.09-1.52-7.66-1.18-7.67,2.17-15.21,4.81-22.51,8.7-24.11,3.89-53.32,17.79-75.38,2.99-4.75,6.8-8.96,9.54-13.85,4-7.13,5.72-15.63,11.19-21.69,2.54-2.82,7.18-4.9,9.91-2.26.93.9,1.42,2.21,2.39,3.07,2.2,1.96,5.71.84,8.11-.86,2.4-1.7,4.67-3.98,7.6-4.22,3.73-.31,6.92,2.96,8.2,6.48.55,1.52.86,3.11,1.08,4.72Z"/>
                <path class="cls-2" d="m231.55.19c-24.71,5.98-43.18,68.78-43.18,68.78-.37,2.35-.94,5.36-1.7,8.89t0,.04c-6.04,28.77-22.79,90.64-22.79,90.64l-2.52.55-.92,3.4,2.44-.14c-1.06,4.01-2.95,11.14-5.53,20.97l-2.42.08-.94,3.42,2.37.12c-1.9,7.23-4.16,15.77-6.72,25.43l-1.88.43-.94,3.4h1.82c-1.7,6.43-3.52,13.35-5.47,20.7l-1.86-.08-.92,3.4,1.84.23c-2.03,7.68-4.18,15.81-6.45,24.37l-2.44.2-.94,3.4,2.38.2c-.68,2.56-1.35,5.14-2.05,7.76-1.7,6.39-3.3,12.16-4.83,17.36l-4.03-.12-.92,3.42,3.79.63c-3.17,10.5-6,18.53-8.48,24.65l-2.6-.08-.94,3.42,1.97.49c-5.08,11.67-8.48,14.86-10.3,15.62-.94.39-1.45.14-1.58.08l-.02-.02c.29-.37.57-.76.84-1.15.27-.39.51-.78.74-1.15.06-.1.14-.25.2-.39,4.89-9.77,38.72-115.42,69.23-242.65.04-.18.08-.35.12-.53,1.62-7.02,3.21-14.21,4.83-21.54C193.63,25.92,216.15,6.15,216.15,6.15c5.63-3.54,10.73-5.41,15.4-5.96Z"/>
                <path class="cls-5" d="m79.62,274.89s-.61,13.72,5.95,22.94l4.85-1.6,7.17-14.26-17.97-7.09Z"/>
                <path class="cls-5" d="m83.21,311.51c-2.5,6.84-3.83,13.08-4.5,18.32l-4.79-1.15c-6.55-9.23-7.31-25.18-7.31-25.18l16.6,8.01Z"/>
                <path class="cls-5" d="m90.7,358.8l-13.8,4.05c-10.11-5.08-18.24-18.84-18.24-18.84l19.51-.74c.1,1.54.25,2.37.25,2.37,3.83,8.56,8.15,12.26,12.28,13.15Z"/>
                <path class="cls-8" d="m95.68,162.7c-3.11,5.96-13.94,15.62-28.11,24.53-13.17,8.25-25.66,13.68-32.74,14.6-2.89.35-4.87-.04-5.65-1.27-2.68-4.28,7.74-22.03,26.25-33.68,18.51-11.63,38.08-12.76,40.79-8.48.63,1,.41,2.48-.53,4.3Z"/>
                <path class="cls-4" d="m105.63,274.9c0,1.25-.18,2.48-.53,3.62-1.56,5.43-6.53,9.38-12.47,9.38-.51,0-1-.02-1.49-.08-6.49-.74-11.51-6.24-11.51-12.92,0-7.19,5.81-13,13-13s13,5.81,13,13Z"/>
                <path class="cls-4" d="m66.61,303.5c0,7.18,5.82,13,13.01,13s13.01-5.82,13.01-13-5.82-13.01-13.01-13.01-13.01,5.82-13.01,13.01Z"/>
                <path class="cls-4" d="m56.93,337.68c0,7.18,5.82,13.01,13.01,13.01s13.01-5.82,13.01-13.01-5.82-13.01-13.01-13.01-13.01,5.82-13.01,13.01Z"/>
                <path class="cls-4" d="m97.7,381.39c0,8.06,6.53,14.59,14.6,14.59s14.59-6.53,14.59-14.59-6.53-14.59-14.59-14.59-14.6,6.53-14.6,14.59Z"/>
                <path class="cls-2" d="m104.03,386.38c-.43-4.62,1.38-9.16,4.22-12.72,2.27-2.84,5.31-4.92,8.65-6.12-1.45-.48-2.99-.75-4.6-.75-8.06,0-14.6,6.53-14.6,14.59,0,6.2,3.88,11.49,9.34,13.6-1.66-2.59-2.73-5.56-3.01-8.61Z"/>
                <circle class="cls-4" cx="81.28" cy="372.16" r="15.2"/>
                <path class="cls-2" d="m89.74,284.82c-1.66-5.04-1.04-11.08,1.8-15.56,1.61-2.55,3.91-4.74,6.57-6.15-1.67-.78-3.52-1.23-5.48-1.23-7.18,0-13.01,5.82-13.01,13.01,0,6.67,5.03,12.17,11.51,12.91-.57-.94-1.04-1.95-1.38-2.98Z"/>
                <path class="cls-2" d="m73.21,314.79c-2.75-3.97-1.71-9.19.34-13.2,1.89-3.69,5.17-7.3,8.99-9.02.84-.38,1.68-.65,2.53-.86-1.66-.77-3.51-1.21-5.46-1.21-7.18,0-13.01,5.82-13.01,13.01,0,4.87,2.68,9.11,6.64,11.34-.01-.02-.03-.03-.04-.05Z"/>
                <path class="cls-2" d="m61.43,344.24c.14-3.22,1.64-6.66,3.91-9.45.19-.36.37-.73.59-1.07,2.42-3.84,6.03-6.38,10.21-7.46-1.85-1-3.96-1.58-6.21-1.58-7.18,0-13.01,5.82-13.01,13.01,0,4.26,2.06,8.04,5.23,10.41-.51-1.18-.79-2.48-.73-3.85Z"/>
                <path class="cls-2" d="m72.6,376.92c.18-3.28,1.53-6.54,3.5-9.09.65-.84,1.39-1.63,2.2-2.36,1.77-1.85,4.17-3.38,6.73-4.02.74-.28,1.53-.45,2.35-.53.17-.05.35-.11.52-.15.91-.24,1.89-.39,2.86-.47-2.6-2.08-5.89-3.33-9.48-3.33-8.39,0-15.2,6.81-15.2,15.2,0,5.94,3.41,11.07,8.38,13.57-1.98-2.52-2.32-5.72-1.86-8.81Z"/>
              </g>
              <path class="cls-2" d="m155.09,170.38c.04-.19.12-.37.17-.56,0-.02,0-.03,0-.05.17-.58.35-1.16.52-1.74.05-.15.12-.28.17-.42l-.29-.08.49-1.84c.78-2.85.51-5.41-.61-5.71-1.13-.31-2.68,1.76-3.46,4.61l-1.86,6.8c-.78,2.87-.49,5.43.63,5.73,1.13.31,2.66-1.76,3.46-4.61l.18-.7.22-.88h.02l.27.07c.02-.21.03-.42.08-.62Z"/>
              <g>
                <path class="cls-1" d="m146.41,192.9c-.26.94.3,1.91,1.24,2.17l6.35,1.73c.94.26,1.91-.3,2.17-1.24h0c.26-.94-.3-1.91-1.24-2.17l-6.35-1.73c-.94-.26-1.91.3-2.17,1.24h0Z"/>
                <path class="cls-2" d="m143.79,195.7c-.78,2.86-.5,5.42.63,5.72h0c1.13.31,2.67-1.76,3.45-4.61l1.86-6.81c.78-2.86.5-5.42-.63-5.73h0c-1.13-.31-2.67,1.76-3.45,4.61l-1.86,6.81Z"/>
              </g>
              <g>
                <path class="cls-1" d="m139.24,222.29c-.26.94.3,1.91,1.24,2.17l6.35,1.73c.94.26,1.91-.3,2.17-1.24h0c.26-.94-.3-1.91-1.24-2.17l-6.35-1.73c-.94-.26-1.91.3-2.17,1.24h0Z"/>
                <path class="cls-2" d="m136.62,225.09c-.78,2.85-.5,5.42.63,5.72h0c1.13.31,2.67-1.76,3.45-4.61l1.86-6.81c.78-2.85.5-5.42-.63-5.73h0c-1.13-.31-2.67,1.76-3.45,4.61l-1.86,6.81Z"/>
              </g>
              <g>
                <path class="cls-1" d="m132.8,246.3c-.26.94.3,1.91,1.24,2.17l6.35,1.73c.94.26,1.91-.3,2.17-1.24h0c.26-.94-.3-1.91-1.24-2.17l-6.35-1.73c-.94-.26-1.91.3-2.17,1.24h0Z"/>
                <path class="cls-2" d="m130.18,249.11c-.78,2.86-.5,5.42.63,5.73h0c1.13.31,2.67-1.76,3.45-4.61l1.86-6.81c.78-2.86.5-5.42-.63-5.73h0c-1.12-.31-2.67,1.76-3.45,4.61l-1.86,6.81Z"/>
              </g>
              <g>
                <path class="cls-1" d="m124.83,274.51c-.26.94.3,1.91,1.24,2.17l6.35,1.73c.94.26,1.91-.3,2.17-1.24h0c.26-.94-.3-1.91-1.24-2.17l-6.35-1.73c-.94-.26-1.91.3-2.17,1.24h0Z"/>
                <path class="cls-2" d="m122.21,277.31c-.78,2.86-.5,5.42.63,5.72h0c1.13.31,2.67-1.76,3.45-4.61l1.86-6.81c.78-2.86.5-5.42-.63-5.73h0c-1.12-.31-2.67,1.76-3.45,4.61l-1.86,6.81Z"/>
              </g>
              <g>
                <path class="cls-1" d="m115.36,303.11c-.26.94.3,1.91,1.24,2.17l6.35,1.73c.94.26,1.91-.3,2.17-1.24h0c.26-.94-.3-1.91-1.24-2.17l-6.35-1.73c-.94-.26-1.91.3-2.17,1.24h0Z"/>
                <path class="cls-2" d="m112.74,305.92c-.78,2.86-.5,5.42.63,5.73h0c1.13.31,2.67-1.76,3.45-4.61l1.86-6.81c.78-2.86.5-5.42-.62-5.73h0c-1.12-.31-2.67,1.76-3.45,4.61l-1.86,6.81Z"/>
              </g>
              <g>
                <path class="cls-1" d="m107.14,331.74c-.26.94.3,1.91,1.24,2.17l6.35,1.73c.94.26,1.91-.3,2.17-1.24h0c.26-.94-.3-1.91-1.24-2.17l-6.35-1.73c-.94-.26-1.91.3-2.17,1.24h0Z"/>
                <path class="cls-2" d="m104.51,334.54c-.78,2.85-.5,5.42.63,5.73h0c1.13.31,2.67-1.76,3.45-4.61l1.86-6.81c.78-2.86.5-5.42-.63-5.73h0c-1.12-.31-2.67,1.76-3.45,4.61l-1.86,6.81Z"/>
              </g>
            </g>
            <path class="cls-8" d="m107.47,161.24c-1.56,2.85-22.4,70.64-73.63,100.65.98-12.28.12-22.73-1.19-30.63-1.72-10.44-4.2-16.46-4.22-16.48,0,0,43.82-10.75,79.03-53.54Z"/>
            <path class="cls-8" d="m298.93,47.91l-2.27,9.58c-14.5-1.88-23.79-7.56-31.86-13.86,1.97.59,4.61,1.54,6.16,1.31,3.73-.55-11.49-15.46-11.83-25.06-.18-4.93,1.29-4.79,2.74-3.48,1.27,1.13,2.52,3.09,2.74,3.44.02.02.02.04.02.04,4.07,5.28,7.66,10.56,11.04,14.33,6.94,7.74,23.26,13.7,23.26,13.7Z"/>
            <path class="cls-5" d="m356.89,74.37c-8.21-.45-28.75-4.57-28.75-4.57l-3.46-.84-4.79-1.19-8.62-2.11-4.57-1.11-12.12-2.97c-.45-1.54-.59-3.05-.53-4.48.14-4.05,1.86-7.62,3.21-9.83.92-1.47,1.66-2.33,1.66-2.33,0,0,5.12,1.02,11.61,2.33,1.7.33,3.48.7,5.28,1.06,2.64.53,5.34,1.06,7.9,1.58l5.45,1.09c2.52.51,4.65.94,6.04,1.23,3.87.8,21.68,22.13,21.68,22.13Z"/>
            <path class="cls-6" d="m315.82,48.34c-.53,1-1.92,3.83-2.93,7.76-1.47,5.69-1.62,8.62-1.62,9.56l-4.57-1.11c-.06-1.06-.23-5.47.86-9.34,1.41-5.06,2.48-7.17,2.97-7.94,1.7.33,3.48.7,5.28,1.06Z"/>
            <path class="cls-6" d="m319.9,67.78c-.1-1.54-.23-5.65.74-9.32,1.54-5.77,2.68-7.9,3.09-8.54l5.45,1.09c-.47.92-1.92,3.97-2.97,8.25-1.33,5.49-1.51,8.48-1.51,9.7l-4.79-1.19Z"/>
            <path class="cls-5" d="m107.47,161.24c-42.81,62.55-68.49,71.21-74.82,70.02-1.72-10.44-4.2-16.46-4.22-16.48,0,0,43.82-10.75,79.03-53.54Z"/>
            <path class="cls-2" d="m115.47,141.08c-2.62-2.25-3.46-5.33-12.84-7.39-12.37-2.72-58.19,7.33-82.23,39.39-17.24,23.01-16.38,36.49-14.52,42.26-7.1-2.19-8.09-9.11-1.29-25.96,14.97-37.14,72.09-63.9,98.12-58.35,8.54,1.82,11.98,5.67,12.76,10.05Z"/>
            <path class="cls-2" d="m22.83,316.5c-1.74,13.72-7.19,41.26,12.18,72.4-17.75-21.29-23.63-54.11-10.44-94.43,3.95-12.12,8.48-22.56,9.28-32.58,1.66-20.78-1.99-36.32-4.07-43.2-.18-.61-.35-1.17-.51-1.64-.49-1.49-.82-2.27-.82-2.27l4.81-1.45s10.55,26.66,4.43,51.39c-6.12,24.75-13.1,38.04-14.84,51.78Z"/>
            <path class="cls-5" d="m95.68,162.7c-3.11,5.96-13.94,15.62-28.11,24.53-13.17,8.25-25.66,13.68-32.74,14.6,5.75-8.58,23.36-29.87,60.85-39.13Z"/>
            <path class="cls-1" d="m162.61,171.25c-.27.94-1.23,1.49-2.17,1.23l-5.69-1.56.92-3.4,5.69,1.56c.94.25,1.49,1.23,1.25,2.17Z"/>
          </g>
          <path class="cls-7" d="m356.89,74.37c-8.21-.45-28.75-4.57-28.75-4.57l-3.46-.84-4.79-1.19-8.62-2.11-4.57-1.11-12.12-2.97c-.45-1.54-.59-3.05-.53-4.48.14-4.05,1.86-7.62,3.21-9.83.92-1.47,1.66-2.33,1.66-2.33,0,0,5.12,1.02,11.61,2.33,1.7.33,3.48.7,5.28,1.06,2.64.53,5.34,1.06,7.9,1.58l5.45,1.09c2.52.51,4.65.94,6.04,1.23,3.87.8,21.68,22.13,21.68,22.13Z"/>
        </g>
      </g>
    </g>
  </g>
</svg>