<?xml version="1.0" encoding="UTF-8"?>
<svg id="Layer_2" data-name="Layer 2" xmlns="http://www.w3.org/2000/svg" viewBox="0 0 587.77 183.6">
  <defs>
    <style>
      .cls-1 {
        fill: none;
        stroke: #8bd1cc;
        stroke-miterlimit: 10;
        stroke-width: 15px;
      }

      .cls-2 {
        fill: #8bd1cc;
      }

      .cls-3 {
        fill: #f1f2f2;
        font-family: AntiqueOliNorD-Reg, 'Antique Olive Nord D';
        font-size: 57px;
      }

      .cls-4 {
        letter-spacing: -.02em;
      }
    </style>
  </defs>
  <g id="Layer_1-2" data-name="Layer 1">
    <text class="cls-3" transform="translate(0 151.84)"><tspan x="0" y="0">Super</tspan></text>
    <text class="cls-3" transform="translate(361.93 151.84)"><tspan x="0" y="0">Mi</tspan><tspan class="cls-4" x="93.25" y="0">x</tspan><tspan x="141.53" y="0">er</tspan></text>
    <g>
      <polygon class="cls-1" points="299.41 16.95 324.26 67.29 379.82 75.37 339.62 114.55 349.11 169.89 299.41 143.76 249.72 169.89 259.21 114.55 219.01 75.37 274.57 67.29 299.41 16.95"/>
      <g>
        <path class="cls-2" d="m272.62,107.18c2.35-1.17,3.95-1.89,5.75-2.78.45-.22.63-.47.51-.74-.11-.23-.32-.23-.87.04-.34.17-.52.26-.86.44-.41.21-1.35.66-1.96.94-1.32.61-2.26.81-3.12.61-.65-.15-1.22-.56-1.65-1.18-.63-.93-.72-1.97-.18-3,.61-1.17,2.41-2.73,5.13-4.05,2.07-1.01,4.31-1.74,6.45-2.14.38,1.1.57,1.65.94,2.75-.92.17-3.31.9-4.68,1.49-.5.23-.75.34-1.25.58-.76.37-1,.64-.85.92.11.22.41.24.78.05.78-.38,1.18-.56,1.97-.91,1.14-.49,2.27-.79,2.99-.82,1.18-.06,2.18.64,2.54,1.71.34,1.03.05,2.18-.72,3.11-.82,1-1.83,1.59-4.01,2.67-1.92.95-3.25,1.57-5.41,2.56-.6-.9-.91-1.35-1.51-2.25Z"/>
        <path class="cls-2" d="m288.88,103.23c-.57-2.31-.85-3.47-1.42-5.78-1.38.34-2.06.53-3.42.96-.48-1.5-.72-2.24-1.19-3.74,5.43-1.73,8.25-2.25,13.89-2.55.09,1.57.13,2.35.22,3.92-1.41.08-2.12.14-3.53.32.29,2.36.44,3.55.73,5.91-2.13.26-3.18.46-5.28.97Z"/>
        <path class="cls-2" d="m306.44,102.4c-.07-.53-.11-.79-.2-1.32-1.42-.2-2.13-.27-3.56-.35-.18.5-.27.75-.45,1.25-2.18-.12-3.27-.11-5.45.04,1.06-4.03,1.74-6.04,3.38-9.98,4.12.03,6.18.23,10.24,1.01.82,4.18,1.08,6.28,1.33,10.44-2.09-.56-3.15-.78-5.29-1.09Zm-1.35-7.31c-.64,1.19-.95,1.79-1.53,3,.95.07,1.43.12,2.38.24-.31-1.3-.48-1.95-.85-3.24Z"/>
        <path class="cls-2" d="m320.02,106.61c-.39-1.58-.62-2.38-1.16-3.96-.49,1.15-.73,1.73-1.22,2.88-2.01-.85-3.03-1.21-5.1-1.81,1.1-3.8,1.65-5.7,2.75-9.49,4.72,1.37,7.04,2.31,11.44,4.74,1.39.77,2.09,1.44,2.5,2.24.45.89.44,1.87-.06,2.61-.49.73-1.32,1.1-2.32,1.11-.8,0-1.39-.16-2.43-.63.59,2.22.82,3.34,1.14,5.54-2.15-1.46-3.26-2.1-5.54-3.23Zm1.35-5.12c.56.26.81.34,1.12.34.39,0,.73-.21.92-.58.3-.59.08-1.02-.84-1.45-.83-.4-1.25-.58-2.1-.94-.32.75-.48,1.13-.8,1.88.68.29,1.02.44,1.7.76Z"/>
      </g>
    </g>
  </g>
</svg>