<?xml version="1.0" encoding="UTF-8"?>
<svg xmlns="http://www.w3.org/2000/svg" viewBox="0 0 465.24 295.18">
  <defs>
    <style>
      .cls-1 {
        fill: #f9b233;
      }

      .cls-2 {
        fill: #fff;
      }

      .cls-3 {
        fill: #ffdc50;
      }

      .cls-4 {
        fill: #452944;
      }

      .cls-5 {
        fill: #e3620e;
        opacity: .41;
      }

      .cls-5, .cls-6 {
        mix-blend-mode: multiply;
      }

      .cls-6 {
        fill: #8163a8;
        opacity: .61;
      }

      .cls-7 {
        stroke-linecap: round;
        stroke-linejoin: round;
      }

      .cls-7, .cls-8 {
        fill: none;
        stroke: #ffdc50;
        stroke-width: 2.4px;
      }

      .cls-9 {
        isolation: isolate;
      }

      .cls-8 {
        stroke-miterlimit: 10;
      }
    </style>
  </defs>
  <g class="cls-9">
    <g id="Layer_2" data-name="Layer 2">
      <g id="Capa_1" data-name="Capa 1">
        <g id="Trumpet">
          <g>
            <path class="cls-1" d="m180.77,167.39l-4,2.2-23.75,13.16c-.28-.87-.47-1.74-.53-2.59-1.08-9.1,6.74-17.81,6.74-17.81l2.81-1.33c.5-.18,1.02-.3,1.53-.36,1.73-.31,3.51-.13,5.26.28,3.01.76,5.91,2.29,8.1,3.67,1.01.62,1.86,1.24,2.51,1.7.84.63,1.32,1.06,1.32,1.06Z"/>
            <path class="cls-1" d="m205.05,156.76l-5.25,2.9-22.51,12.43c-.27-.83-.45-1.67-.52-2.5-.09-.61-.14-1.24-.14-1.82,0-1.06.12-2.12.3-3.14,0,0,.01-.02.03-.1,1.2-6.3,5.48-11.6,6.37-12.65.11-.13.16-.18.16-.18l2.82-1.3c.42-.14.85-.26,1.29-.34,2.66-.51,5.55.09,8.17,1.12,1.56.61,3.05,1.37,4.34,2.13.77.45,1.5.94,2.14,1.34,1.72,1.18,2.79,2.09,2.79,2.09Z"/>
            <path class="cls-1" d="m206.47,141.35s-9.39,10.47-6.21,20.4l27.76-15.35s-10.68-9.11-18.74-6.36l-2.81,1.32Z"/>
            <path class="cls-1" d="m465.24,110.05s-35.46-16.88-69.36-10.13c-8.38,1.68-24.57,7.34-45.55,15.55-13,5.12-27.86,11.2-43.82,17.92-2.07.89-4.16,1.77-6.27,2.67-21.78,9.24-45.33,19.53-68.94,30.06-5.3,2.36-10.62,4.75-15.9,7.13-2.02.89-4.05,1.81-6.04,2.72-5.35,2.39-10.64,4.79-15.9,7.18-1.77.81-3.53,1.61-5.31,2.42-5.35,2.45-10.63,4.88-15.84,7.27-37.8,17.39-71.38,33.34-92.21,43.89,0,0-.06-1.38.4-3.65.23-1.21.61-2.65,1.21-4.3,1.78-4.89,5.53-11.4,13.43-17.61,4.44-3.49,26.13-14.91,55.69-30.15.28-.14.6-.3.89-.46.25-.14.52-.26.77-.39.31-.15.64-.33.97-.5v-.02c7.31-3.75,15.11-7.74,23.18-11.88.94-.46,1.88-.95,2.82-1.44,6.57-3.36,13.32-6.81,20.23-10.34.84-.43,1.7-.88,2.58-1.32,7.14-3.67,14.41-7.38,21.74-11.14,2.77-1.46,5.59-2.9,8.4-4.34v-.02c61.51-31.65,123.86-64.48,140.61-77.83,17.89-14.25,38.05-51.98,37.96-61.34,0,0,.98.77,2.65,2.29,7.86,7.15,31.22,30.78,43.84,68.98,3.84,11.6,6.68,24.55,7.78,38.78Z"/>
            <path class="cls-2" d="m69.01,249.26l-.74.3c-.12.07-.19.08-.19.08l-5.11,2.08-36.36,14.89-15.73,12.96c-15.48-9.11-9.92-24.63-9.92-24.63l20.95.97,42.53-18.74c.12-.07.24-.11.38-.17l2.78,8.13,1.39,4.05.02.07Z"/>
            <path class="cls-1" d="m368.61,179.41l-42.48,22.42-58.95,27.24-6.85,3.17-15.84,7.33-5.99,2.77-15.83,7.31-5.3,2.45-15.81,7.32-52.23,24.14-10.15,4.68-7.5,3.46s-14.15-13.9-5.88-12.52c.13.02.32.02.57,0,2.41-.27,9.78-3.13,20.31-7.74,12.94-5.6,30.67-13.79,50.08-22.96,5.14-2.43,10.42-4.95,15.77-7.48,1.73-.84,3.49-1.68,5.25-2.51,5.23-2.49,10.48-5,15.74-7.53,1.98-.97,3.97-1.91,5.97-2.87,5-2.43,9.99-4.84,14.91-7.23.25-.13.52-.26.79-.38,28.93-14.03,54.87-26.8,67.78-33.16,2.59-1.29,4.65-2.3,6.11-3.02,5.98-2.95,10.99-5.57,15.13-7.83,3.01-1.63,5.56-3.09,7.7-4.33,6.34-3.7,9.02-5.66,9.02-5.66,1.34-19.15-16.09-42.68-22.73-41.96-1.23.12-12.51,5.1-29.82,12.97-1.98.89-4.04,1.84-6.21,2.81-18.55,8.49-42.65,19.65-68.27,31.6-5.22,2.41-10.51,4.9-15.81,7.37-2,.91-3.98,1.85-5.99,2.77-5.24,2.46-10.53,4.94-15.79,7.38-1.76.85-3.54,1.66-5.29,2.49-5.31,2.47-10.56,4.95-15.79,7.38-27.93,13.1-54.2,25.42-73.7,34.62-5.83,2.73-11.05,5.2-15.55,7.3-8.76,4.13-14.72,6.95-16.92,7.96-.33.17-.56.29-.72.36-.12.07-.19.08-.19.08-.93-.66-1.72-1.32-2.37-1.99-5.05-5.14-2.24-9.95-2.2-10.02,0,0,.31-.15.94-.46.12-.07.24-.11.38-.17,2.48-1.21,8.41-4.11,16.88-8.23,19.61-9.52,52.77-25.62,88.11-42.71,4.89-2.38,9.83-4.76,14.79-7.16,2.12-1.03,4.25-2.06,6.39-3.07,4.77-2.31,9.53-4.63,14.27-6.9,2.35-1.12,4.69-2.28,7-3.39,5.1-2.45,10.16-4.88,15.13-7.27,27.01-13.02,51.57-24.78,68.05-32.52.07-.02.11-.05.18-.06,2.2-1.07,4.28-2.01,6.17-2.89,4.19-1.95,7.6-3.54,10.11-4.65,18.56-8.31,30.9-6.34,38.4-2.69,6.63,3.26,9.47,7.85,9.47,7.85,0,0,13.91,24.92,16.18,35.31,2.25,10.38-7.37,20.78-7.37,20.78Z"/>
            <polyline class="cls-8" points="202.72 227.06 205.79 225.72 211.13 223.38 227.09 216.34 233.15 213.69 245.45 208.27"/>
            <path class="cls-1" d="m262.88,259.76c-4.42,1.92-9.56-.06-11.48-4.48l-3.07-7.01-3.83-8.69-5.03-11.48-.31-.72-6.01-13.69-15.11-34.4-2.63-6.05-2.26-5.1-.27-.64c-.27-.64-.48-1.29-.59-1.95-.72-3.88,1.3-7.9,5.07-9.53,2.66-1.17,5.59-.9,7.91.46.79.47,1.53,1.07,2.15,1.8.58.65,1.07,1.39,1.42,2.22l.09.22,2.37,5.39,2.55,5.8,12.58,28.67,3.51,8,5.23,11.91.08.19,5.09,11.57,3.82,8.71,3.2,7.31c1.9,4.41-.08,9.55-4.48,11.48Z"/>
            <path class="cls-1" d="m241.72,271.39c-4.4,1.94-9.55-.08-11.48-4.48l-3.94-8.98-3.63-8.27-4.91-11.16-.63-1.47-6-13.66-14.88-33.93-2.78-6.31-.68-1.61-1.06-2.4c-.46-1.09-.71-2.19-.71-3.29-.11-3.44,1.85-6.73,5.19-8.2,2.68-1.15,5.61-.89,7.93.48.4.23.79.52,1.15.82.92.74,1.68,1.69,2.24,2.84.05.11.11.24.16.35l1.68,3.83,2.68,6.11,15.04,34.28,6.01,13.69.4.94,5,11.38,3.76,8.57,3.94,8.98c1.94,4.4-.06,9.56-4.48,11.48Z"/>
            <path class="cls-1" d="m220.46,280.84c-4.4,1.94-9.53-.06-11.46-4.47l-4.01-9.11-3.43-7.84-4.82-10.93-.91-2.14-20.67-47.04-2.85-6.49-1.17-2.65-.69-1.59c-.36-.83-.58-1.69-.63-2.51-.44-3.69,1.54-7.39,5.13-8.96,2.66-1.17,5.59-.9,7.91.46.63.37,1.2.82,1.75,1.34.74.75,1.34,1.63,1.81,2.67l1.17,2.66.57,1.32,2.8,6.37,14.82,33.79,6,13.66.72,1.64,4.86,11.1,3.58,8.16,3.98,9.1c1.94,4.4-.06,9.56-4.48,11.48Z"/>
            <path class="cls-1" d="m266.3,238.46c-.57.96-1.29,1.8-2.15,2.5-.61.51-1.31.94-2.08,1.28l-13.76,6.02-6.06,2.65-15.96,7-5.34,2.34-15.96,7-44.06,19.33c-3.94,1.73-8.54.37-11.6-3.03-.87-.96-1.63-2.11-2.19-3.4-1.28-2.95-1.38-6.07-.47-8.71.84-2.57,2.59-4.69,5.09-5.78l24.78-10.84s.02.01.05-.03l4.53-2s.07-.02.08-.04l14.65-6.4,15.95-6.98,5.34-2.34,15.96-7,6.06-2.65,13.77-6.05c.48-.19.98-.38,1.46-.47.3-.08.56-.15.87-.19,4.49-.65,9.27,2.17,11.45,7.07.2.43.35.88.49,1.33,1.05,3.32.67,6.75-.88,9.38Z"/>
            <polygon class="cls-1" points="333.95 195.39 327.72 198.13 322.94 187.33 318.8 177.97 315.01 169.41 302.12 140.31 300.24 136.05 295.65 125.7 295.64 125.67 293.38 120.57 299.6 117.79 301.64 122.39 301.82 122.81 306.51 133.39 308.34 137.5 321.29 166.78 325.02 175.19 329.05 184.31 333.95 195.39"/>
            <g>
              <path class="cls-1" d="m163.12,164.88c-.6.3-1.21.33-1.78.11-.15-.03-.31-.1-.45-.18-.38-.22-.69-.55-.9-.95l-.76-1.49-2.76-5.45-.39-.77c-.58-1.16-.13-2.55,1.02-3.11,1.14-.6,2.53-.14,3.13,1l.4.8,2.95,5.84.55,1.08c.18.36.28.72.26,1.08-.01.84-.48,1.63-1.26,2.04Z"/>
              <path class="cls-1" d="m167.27,149.94c-.75,1.27-2.49,2.75-4.76,3.92l-1.89.97-4.15,2.08-2.22,1.14c-3.48,1.75-6.85,2.07-7.54.71-.25-.48-.14-1.1.26-1.79.75-1.27,2.48-2.73,4.76-3.89l8.26-4.19c3.46-1.76,6.85-2.07,7.54-.71.23.47.12,1.08-.27,1.75Z"/>
            </g>
            <g>
              <path class="cls-1" d="m187.7,152.12c-.2.48-.56.91-1.07,1.14-.48.25-1,.31-1.49.19-.26-.04-.49-.12-.72-.26-.38-.22-.69-.55-.9-.95l-.18-.36-3.33-6.57-.39-.77c-.58-1.16-.13-2.55,1-3.13,1.16-.58,2.55-.13,3.14,1.03l.39.77,3.48,6.86.04.08c.35.65.32,1.37.05,1.97Z"/>
              <path class="cls-1" d="m190.8,138.34c-.75,1.27-2.49,2.75-4.76,3.92l-1.91.96-4.13,2.1-2.22,1.14c-3.48,1.75-6.85,2.07-7.56.7-.23-.47-.12-1.08.27-1.75.75-1.27,2.49-2.75,4.76-3.89l8.27-4.21c3.46-1.76,6.85-2.07,7.54-.71.23.47.12,1.08-.27,1.75Z"/>
            </g>
            <g>
              <path class="cls-1" d="m203.96,130.43c1.14-.58,2.54-.12,3.12,1.02l3.91,7.71c.58,1.14.12,2.54-1.02,3.12h0c-1.14.58-2.54.12-3.12-1.02l-3.91-7.71c-.58-1.14-.13-2.54,1.02-3.12h0Z"/>
              <path class="cls-1" d="m206.87,126.31c3.47-1.76,6.85-2.08,7.54-.71h0c.69,1.37-1.56,3.9-5.02,5.67l-8.27,4.2c-3.47,1.76-6.85,2.08-7.54.71h0c-.69-1.37,1.56-3.9,5.03-5.67l8.27-4.2Z"/>
            </g>
            <path class="cls-7" d="m163.34,244.56s1.45,10.16,10.31,10.48c1.04.05,1.99-.04,2.88-.22,0,0,.02.01.05-.03,1.81-.34,3.31-1.09,4.53-2,.03,0,.07-.02.08-.04,3.19-2.37,4.44-5.77,4.44-5.77l-6.9-18.72"/>
            <path class="cls-1" d="m354.87,178.3l-8.48,4.52c-.1-.31-.2-.62-.3-.93-.68-2.14-1.32-3.93-1.91-5.4-3.72-9.16-6.02-6.75-9.29-5.53-2.78,1.04-7.49,3.16-9.86,4.24-.92.42-1.5.69-1.5.69l-4.72,2.09-68.87,30.6-2.27,1-4.01-7.71c.93-.44,1.88-.86,2.78-1.29,33.03-15.21,54.46-25.05,68.58-31.17,2.26-.98,4.35-1.85,6.28-2.63,16.03-6.68,20.13-7.11,22.78-5.3,2.71,1.85,5.67,6.66,7.81,10.67,1.79,3.36,2.99,6.15,2.99,6.15Z"/>
            <path class="cls-7" d="m226.95,119.57s-13.03,16.39,6.87,19.91"/>
            <path class="cls-1" d="m139.17,288.25c-18,11.04-20.14,5.59-20.14,5.59-12.41-8.06-27.99-41.14-33.12-52.6-1.1-2.48-1.73-3.94-1.73-3.94l15.51-7.38c.59,1.39,1.18,2.72,1.77,4.02,14.62,33.08,21.94,42.53,24.9,45.25,1.16,1.05,1.64,1.08,1.64,1.08l3.81.64s19.77-.29,7.35,7.34Z"/>
            <path class="cls-6" d="m459.48,98.81c-.08.04-.15.06-.23.06-3.17.47-15.18-17.71-27.27-41.36-11.36-22.24-18.82-41.57-17.81-45.73.11-.38.26-.63.5-.75,2.78-1.43,19.49,14.48,31.87,38.7,12.39,24.25,15.76,47.64,12.94,49.08Z"/>
            <path class="cls-4" d="m459.25,98.87c-3.17.47-15.18-17.71-27.27-41.36-11.36-22.24-18.82-41.57-17.81-45.73,14.12,16.35,34.06,45.78,45.08,87.09Z"/>
          </g>
          <path class="cls-4" d="m368.61,179.41l-42.48,22.42-58.95,27.24c1.05,3.32.67,6.75-.88,9.38-.57.96-1.29,1.8-2.15,2.5l3.2,7.31c1.9,4.41-.08,9.55-4.48,11.48-4.42,1.92-9.56-.06-11.48-4.48l-3.07-7.01-6.06,2.65,3.94,8.98c1.94,4.4-.06,9.56-4.48,11.48-4.4,1.94-9.55-.08-11.48-4.48l-3.94-8.98-5.34,2.34,3.98,9.1c1.94,4.4-.06,9.56-4.48,11.48-4.4,1.94-9.53-.06-11.46-4.47l-4.01-9.11-44.06,19.33c-3.94,1.73-8.54.37-11.6-3.03l-10.15,4.68c-18,11.04-20.14,5.59-20.14,5.59-8.85-5.75-19.33-24.23-26.44-38.52.92,1.5,21.56,35.05,41.71,29.02,8.03-2.42,10.05-2.78,9.52-2.36,7.12-3.06,12.76-9.85,20.6-11.06,3.92-.6,8,.29,11.86-.61,7.29-1.71,11.79-9.2,18.66-12.19,4.92-2.14,10.78-1.82,15.33-4.66,2.85-1.77,4.92-4.63,7.79-6.37,6.4-3.87,15.13-1.36,21.68-4.98,3.59-1.98,6.17-5.64,10.04-7,2.24-.79,4.74-.73,6.87-1.77,1.41-.69,2.56-1.82,3.71-2.88,11.84-10.88,28.49-15.65,42.88-22.63,15.85-7.69,31.69-15.48,47.16-23.94,5.97-3.27,14.13-6.6,18.7-11.86,3.03-3.48,5.38-7.86,7.13-11.73.99,9.78-7.62,19.11-7.62,19.11Z"/>
          <g>
            <polygon class="cls-4" points="201.86 186.83 204.99 185.36 227.52 232.47 224.98 233.59 201.86 186.83"/>
            <polygon class="cls-4" points="224.45 176.5 227.58 175.04 250.11 222.15 247.58 223.26 224.45 176.5"/>
            <polygon class="cls-4" points="181.75 196.05 184.88 194.59 207.41 241.7 204.87 242.81 181.75 196.05"/>
          </g>
          <path class="cls-4" d="m465.24,110.05s-35.46-16.88-69.36-10.13c-2.12.44-4.73,1.1-7.8,2.02,1.32-.63,50.54-23.22,77.16,8.11Z"/>
          <path class="cls-3" d="m98.82,212.42c-8.32,5.19-14.66,18.36-14.66,18.36l-3.66,2.29c.23-1.21.61-2.65,1.21-4.3,1.78-4.89,5.53-11.4,13.43-17.61,4.49-3.52,26.58-15.15,56.58-30.61l1.3,2.2s-42.88,22.61-54.19,29.66Z"/>
          <path class="cls-3" d="m370.91,68.37c-16.05,13.65-142.88,78.04-142.88,78.04l-4.02-2.87c2.77-1.46,5.59-2.9,8.4-4.34,61.49-31.65,123.86-64.5,140.61-77.85,17.89-14.25,38.05-51.98,37.96-61.34,0,0,.98.77,2.65,2.29-2.1,23.54-28.05,53.59-42.71,66.08Z"/>
          <path class="cls-3" d="m153.46,179.67c-.37,1.87-.44,3.09-.44,3.09,0,0-.82-.65-2.18-1.74.28-.14.6-.3.89-.46.25-.14.52-.26.77-.39-1.08-9.1,6.74-17.81,6.74-17.81l-2.76-5.45-2.22,1.14c-3.48,1.75-6.85,2.07-7.54.71-.25-.48-.14-1.1.26-1.79.75-1.27,2.48-2.73,4.76-3.89l8.26-4.19c3.46-1.76,6.85-2.07,7.54-.71.23.47.12,1.08-.27,1.75-.75,1.27-2.49,2.75-4.76,3.92l-1.89.97,2.95,5.84c1.73-.31,3.51-.13,5.26.28-1.65.46-3.13,1.11-4.45,1.88-1.13.63-2.13,1.36-3.04,2.15-5.1,4.45-7.08,10.88-7.87,14.66v.02Z"/>
          <path class="cls-3" d="m195.78,151.2c-3.13-.46-5.83-.03-8.08.93-.92.36-1.77.81-2.56,1.34-5.51,3.68-7.88,10.24-8.18,11.08,1.2-6.3,5.48-11.6,6.37-12.65l-3.33-6.57-2.22,1.14c-3.48,1.75-6.85,2.07-7.56.7-.23-.47-.12-1.08.27-1.75.75-1.27,2.49-2.75,4.76-3.89l8.27-4.21c3.46-1.76,6.85-2.07,7.54-.71.23.47.12,1.08-.27,1.75-.75,1.27-2.49,2.75-4.76,3.92l-1.91.96,3.48,6.86c2.66-.51,5.55.09,8.17,1.12Z"/>
          <path class="cls-3" d="m218.76,140.83c-3.13-.46-5.53-.69-7.78.27-.92.36-1.77.81-2.56,1.33-5.51,3.68-7.88,10.24-8.18,11.08,1.2-6.3,5.48-11.6,6.37-12.65l-3.33-6.57-2.22,1.14c-3.48,1.75-6.85,2.07-7.56.7-.23-.47-.12-1.08.27-1.75.75-1.27,2.49-2.75,4.76-3.89l8.27-4.21c3.46-1.76,6.85-2.07,7.54-.71.23.47.12,1.08-.27,1.75-.75,1.27-2.49,2.75-4.76,3.92l-1.91.96,3.48,6.86c2.66-.51,5.24.74,7.86,1.78Z"/>
          <path class="cls-4" d="m408.56,53.81c-43.15,46.41-100.1,69.19-161.86,98.52-89.4,42.45-156.11,74.08-156.11,74.08l2.61,6.59s60.96-34.94,153.17-77.18c51.86-23.76,112.3-59.57,179.17-73.45-7.19-8.78-13.35-18.18-16.97-28.57Z"/>
          <path class="cls-5" d="m375.98,158.63c-2.27-10.39-16.18-35.31-16.18-35.31,0,0-2.07-3.33-6.79-6.33-.15-.09-.28-.19-.38-.25-.7-.44-1.46-.86-2.29-1.27,1.03-.41,2.04-.79,3-1.19,14.32-5.55,26.23-9.82,34.75-12.35,3.07-.92,5.68-1.58,7.8-2.02,33.9-6.74,69.36,10.13,69.36,10.13-.09-1.23-.21-2.46-.36-3.7-1.26-12.78-3.92-24.5-7.42-35.08-.91-.7-1.78-1.42-2.71-2.13-12.87-10.22-26.34-27.32-43.73-17.11-16.24,9.53-29.24,23.74-44.97,34.1-6.29,4.15-12.99,7.65-19.71,11.06-32.75,16.65-66.54,31.51-97.4,51.46-3.2,2.07-6.45,4.23-10.15,5.11-10.76,2.58-16.21-11.49-27.23-10.33,0,0-7.84,6.03-9.6,13.38-2.4-1.65-6.72-3.63-13.25-2.94,0,0-8.81,6.79-9.83,14.72-2.12-1.71-6.71-4.38-14.13-3.6-1.8.19-4.9,6.61-5.68,7.89-2.66,4.38-3.85,9.35-6.33,13.83-4.85,8.8-14.77,13.25-23.83,17.61-11.31,5.44-22.27,11.63-32.77,18.5-9.73,6.36-21.26,13.15-28.53,22.33-.65.82-1.29,1.66-1.9,2.51-.97,1.31-1.88,2.66-2.73,4.07l5.11-2.08s.07-.02.19-.08c0,0,.74-.3.72-.36,2.2-1.01,8.16-3.83,16.92-7.96,1.47,3.28,3.79,8.33,6.68,14.08,7.12,14.29,17.59,32.77,26.44,38.52,0,0,2.14,5.45,20.14-5.59l10.15-4.68c3.06,3.4,7.66,4.76,11.6,3.03l44.06-19.33,4.01,9.11c1.94,4.4,7.06,6.41,11.46,4.47,4.42-1.92,6.42-7.08,4.48-11.48l-3.98-9.1,5.34-2.34,3.94,8.98c1.94,4.4,7.08,6.42,11.48,4.48,4.42-1.92,6.42-7.08,4.48-11.48l-3.94-8.98,6.06-2.65,3.07,7.01c1.92,4.42,7.06,6.4,11.48,4.48,4.4-1.94,6.38-7.07,4.48-11.48l-3.2-7.31c.86-.7,1.58-1.54,2.15-2.5,1.55-2.63,1.94-6.06.88-9.38l58.95-27.24,42.48-22.42s8.61-9.33,7.62-19.11c-.04-.56-.13-1.12-.26-1.67Zm-73.85-18.32l11.86,26.78c.27.41.48.85.6,1.28,0,.03,0,.05,0,.09l.42.95c-.08.04-.19.08-.27.12.05,2.31-1.6,4.15-3.77,4.98-11.09,4.22-21.41,10.18-32.36,14.74-3.26,1.34-6.58,2.62-9.85,3.93-3.28,1.7-6.64,3.21-10.09,4.47-2.14,1.16-4.15,2.51-5.85,4.21-4.02,4.02-9.9-1.05-8.2-5.42l-10.76-24.53c25.62-11.95,49.72-23.11,68.27-31.6Zm-110.21,114.9c-3.8-.1-8.33,3.17-11.83,4.99-5.14,2.66-10.67,4.69-16,7.01-5.79,2.53-11.45,5.27-17.18,7.92-3.69,1.68-9.4,3.16-12.12,5.21-2.18,1.64-5.02,2.03-7.11-.11-.31-.33-.56-.72-.78-1.16-.19.03-.39.08-.54.1-2.95-2.72-10.27-12.18-24.9-45.25,19.5-9.2,45.77-21.52,73.7-34.62l20.67,47.04-.49.22c2.71,2.8,1.58,8.75-3.43,8.64Zm19.87-15.84l-6-13.66-14.82-33.79c1.75-.83,3.52-1.64,5.29-2.49l14.88,33.93,6,13.66-5.34,2.34Zm21.31-9.34l-6.01-13.69-15.04-34.28c2.01-.93,4-1.87,5.99-2.77l15.11,34.4,6.01,13.69-6.06,2.65Zm85.9-34.98c-9.79,2.62-18.36,8.35-27.36,12.84-9.52,4.75-20.02,8.11-28.8,14.19-2.26,1.54-5.64.26-6.86-1.92t-.03-.05c-.27.12-.52.26-.79.38l-5.23-11.91,68.87-30.6,4.14,9.36c-.28.14-.63.3-.94.46,1.29,2.59.61,6.27-3.01,7.26Zm10.06-10.73l-4.03-9.12c2.38-1.08,7.09-3.2,9.86-4.24,3.28-1.22,5.57-3.64,9.29,5.53-4.14,2.26-9.15,4.88-15.13,7.83Zm31.16-12.18c-.55.27-1.11.41-1.68.5-.93.44-2.03.58-3.22.27-.84-.24-1.64-.74-2.3-1.44-.36.24-.72.45-1.13.68-2.14-4.01-5.1-8.82-7.81-10.67-2.65-1.81-6.75-1.39-22.78,5.3l-12.95-29.28c17.32-7.87,28.6-12.84,29.82-12.97,1.23-.12,2.82.56,4.6,1.89.54.04,1.08.07,1.66.19.93.18,1.83.48,2.68.85,2.8-.26,5.42.88,7.63,2.72,3.55,2.96,5.58,7.73,7.19,12.02,3.09,4.35,5.05,9.44,5.63,14.76.66,5.96-1.64,12.48-7.33,15.18Z"/>
        </g>
      </g>
    </g>
  </g>
</svg>