<?xml version="1.0" encoding="UTF-8"?>
<svg xmlns="http://www.w3.org/2000/svg" viewBox="0 0 294.43 735.41">
  <defs>
    <style>
      .cls-1 {
        stroke-width: .74px;
      }

      .cls-1, .cls-2 {
        stroke: #1c080d;
      }

      .cls-1, .cls-2, .cls-3 {
        fill: none;
        stroke-miterlimit: 10;
      }

      .cls-4 {
        fill: #ed6a30;
      }

      .cls-5 {
        fill: #bf2a18;
      }

      .cls-6 {
        fill: #441420;
      }

      .cls-7 {
        fill: #1c080d;
      }

      .cls-2 {
        stroke-width: .86px;
      }

      .cls-3 {
        stroke: #fff;
        stroke-width: 1.27px;
      }

      .cls-8 {
        fill: #662483;
        mix-blend-mode: multiply;
        opacity: .61;
      }

      .cls-9 {
        isolation: isolate;
      }
    </style>
  </defs>
  <g class="cls-9">
    <g id="Layer_2" data-name="Layer 2">
      <g id="Capa_1" data-name="Capa 1">
        <g id="Violin">
          <g>
            <rect class="cls-6" x="262.45" y="31.96" width="4.63" height="26.33" transform="translate(141.43 283.71) rotate(-72.34)"/>
            <polygon class="cls-6" points="252.65 120.58 230.89 113.65 236.54 98.84 238.58 93.48 248.87 66.51 250.93 61.16 257.06 45.1 257.41 44.15 258.72 40.77 260.91 35.01 274.03 39.18 272.46 45.15 271.69 48.13 271.29 49.63 270.49 52.69 269.03 58.25 260.96 88.93 259.51 94.47 252.65 120.58"/>
            <path class="cls-6" d="m293.52,28.95c-1.63,5.13-7.11,7.94-12.23,6.31-1.04-.33-2-.84-2.84-1.46-.07.38-3.52,11.29-3.76,12.06v.02c-.71,2.19-1.68,2.62-2.99,2.26-1.72-.5-4.01-2.34-6.92-3.27-.16-.05-.35-.11-.52-.14-2.46-.66-5.07-.39-6.84-.57-1.85-.18-2.84-.83-2.05-3.32.02-.07.14-.44.35-1.01,1.1-3.06,4.33-11.93,4.54-12.34-1.45.25-2.97.15-4.47-.33-5.13-1.63-7.95-7.08-6.31-12.21,1.63-5.13,7.08-7.95,12.21-6.31,1.5.48,2.82,1.3,3.86,2.32-.18-1.35-.08-2.77.36-4.18,1.46-4.6,6.03-7.34,10.67-6.65.51.06,1.04.18,1.57.35,5.13,1.63,7.94,7.11,6.31,12.21-.48,1.5-1.27,2.8-2.32,3.84,1.64-.34,3.35-.31,5.04.23,5.13,1.63,7.97,7.09,6.34,12.22Z"/>
            <g>
              <rect class="cls-6" x="245.55" y="53.95" width="5.73" height="18.81" transform="translate(112.68 280.85) rotate(-72.34)"/>
              <path class="cls-6" d="m246.91,62.88c-1.29,4.07-6.81,5.94-12.33,4.18-5.51-1.76-8.93-6.47-7.64-10.54,1.29-4.06,6.81-5.94,12.32-4.18,5.52,1.76,8.94,6.47,7.64,10.54Z"/>
              <g>
                <rect class="cls-6" x="234.88" y="86.81" width="5.73" height="18.81" transform="translate(73.94 293.57) rotate(-72.34)"/>
                <path class="cls-6" d="m234.81,95.28c-1.29,4.06-6.81,5.94-12.32,4.18-5.52-1.76-8.94-6.47-7.64-10.54,1.29-4.07,6.81-5.94,12.33-4.18,5.51,1.75,8.93,6.47,7.63,10.54Z"/>
              </g>
            </g>
            <g>
              <rect class="cls-6" x="269.82" y="47" width="5.75" height="18.81" transform="translate(136.23 299.14) rotate(-72.34)"/>
              <path class="cls-6" d="m294.16,63.22c-1.29,4.07-6.8,5.95-12.32,4.19-4.18-1.33-7.17-4.4-7.79-7.57-.19-1-.15-2.01.16-2.98.31-.97.86-1.81,1.58-2.5,2.32-2.24,6.53-3.01,10.73-1.67,5.52,1.76,8.93,6.46,7.64,10.52Z"/>
              <g>
                <rect class="cls-6" x="258.88" y="82.77" width="5.72" height="18.81" transform="translate(94.5 313.62) rotate(-72.34)"/>
                <path class="cls-6" d="m284.63,99.47c-1.29,4.07-6.8,5.95-12.32,4.19-4.2-1.34-7.2-4.4-7.78-7.59-.2-.98-.16-1.98.15-2.95.31-.97.86-1.81,1.58-2.5,2.32-2.26,6.54-3.03,10.74-1.69,5.52,1.76,8.93,6.48,7.63,10.54Z"/>
              </g>
            </g>
          </g>
          <path class="cls-7" d="m284.63,99.47c-1.29,4.07-6.8,5.95-12.32,4.19-4.2-1.34-7.2-4.4-7.78-7.59l-5.01-1.6-6.86,26.1-8.96-2.85c-.76-1.52-1.18-3.17-1.06-4.97.24-3.64.96-7.48,1.96-11.36.46-1.84.99-3.68,1.6-5.5,1.28-4.02,2.78-7.94,4.26-11.47,3.63-8.69,8.8-16.84,10.86-26.05.8-3.71,1.12-7.58,2.13-11.25.23-.82.49-1.62.82-2.41l.06-.18c.24-.59.5-1.16.78-1.74.88-1.88,1.93-3.74,2.61-5.63.43-1.19.71-2.39.73-3.66.07-3.41-1.75-6.59-2.43-9.93-.69-3.35.45-7.72,3.82-8.4,1.44-.3,3,.17,4.36-.37,2.55-1.05,2.61-4.61,1.99-7.28-.58-2.5-1.21-5.55.41-7.43.51.06,1.04.18,1.57.35,5.13,1.63,7.94,7.11,6.31,12.21-.48,1.5-1.27,2.8-2.32,3.84,1.64-.34,3.35-.31,5.04.23,5.13,1.63,7.97,7.09,6.34,12.22-1.63,5.13-7.11,7.94-12.23,6.31-1.04-.33-2-.84-2.84-1.46-.07.38-3.52,11.29-3.76,12.06l3.33,1.06-1.4,4.41-5.31-1.69-.79,3.05,5.29,1.68c2.32-2.24,6.53-3.01,10.73-1.67,5.52,1.76,8.93,6.46,7.64,10.52-1.29,4.07-6.8,5.95-12.32,4.19-4.18-1.33-7.17-4.4-7.79-7.57l-5.01-1.6-8.06,30.68,5.29,1.68c2.32-2.26,6.54-3.03,10.74-1.69,5.52,1.76,8.93,6.48,7.63,10.54Z"/>
          <g>
            <g>
              <g>
                <path class="cls-5" d="m211.46,577.95c-20.88,49.19-82.99,41.65-124.84,28.94-14.29-4.75-30.15-11.41-44.39-20.21-17.09-10.56-31.79-24.24-38.43-41.49-3.91-10.1-5.03-21.42-2.28-34.08,7.62-34.87,31.37-45.47,28.55-60.9-2.06-11.26-.9-14.05,3.29-14.88,3.92,2.09,7.19,9.06,21.62,10.16,11.83.89,27.85-8.92,38.17-31.12,10.35-22.2,10.02-44.26-.72-49.28-4.47-2.09-10.14-2.36-10.14-2.36-6.87-3.43,6.78-7.87,8.94-23.84,2.78-9.93,3.92-24.39,10-37.32,22.2-47.35,75-33.08,75-33.08l32.96,10.49s51.31,18.88,42.07,70.35c-2.52,14.06-9.94,26.52-13.42,36.23-7.47,14.28,1.1,25.79-6.49,24.62,0,0-4.8-3.06-9.64-3.93-11.67-2.11-24.69,15.7-29.08,39.79-4.41,24.09,2.99,41.35,13.15,47.46,12.41,7.44,19.12,3.64,23.52,4.21,2.91,3.09,2.27,6.04-5.92,14.04-11.22,10.95,2.01,33.33-11.91,66.19Z"/>
                <path class="cls-4" d="m107.56,304.38c-8.63,16.41-9.69,35.86-17.5,52.66,8.07,6.61,12.31,17.1,12.94,27.5.66,10.39-1.95,20.75-5.66,30.48-4.26,11.16-10.23,22.08-19.61,29.47-9.36,7.43-22.66,10.69-33.58,5.84-2.22-1.01-5.67-1.83-6.44.49-.19.6-.09,1.24-.04,1.87.73,8.42-6.2,15.25-11.78,21.59-16.79,19.18-24.99,45.57-22.09,70.89-3.91-10.1-5.03-21.42-2.28-34.08,7.62-34.87,31.37-45.47,28.55-60.9-2.06-11.26-.9-14.05,3.29-14.88,3.92,2.09,7.19,9.06,21.62,10.16,11.83.89,27.85-8.92,38.17-31.12,10.35-22.2,10.02-44.26-.72-49.28-4.47-2.09-10.14-2.36-10.14-2.36-6.87-3.43,6.78-7.87,8.94-23.84,2.78-9.93,3.92-24.39,10-37.32,22.2-47.35,75-33.08,75-33.08l3.44,1.1c-6.42,3.48-18.78,1.07-25.19,2.1-19.25,3.18-37.89,15.06-46.91,32.69Z"/>
                <path class="cls-8" d="m211.46,577.95c-20.88,49.19-82.99,41.65-124.84,28.94-14.29-4.75-30.15-11.41-44.39-20.21-4.24-4.83-8.37-9.81-11.38-15.48-6.47-12.19-8.68-26.6-6.16-40.2,1.61-8.57,5.17-16.95,11.23-23.21,7.98-8.2,19.69-12.07,31.11-12.15,11.44-.07,22.65,3.32,33.11,7.95,9.82,4.32,19.86,9.86,30.52,8.73,13.2-1.42,23.13-12.81,29.2-24.61,5.72-11.1,9.33-23.31,10.54-35.74,2.74-28.33-6.72-57.75,1.73-84.93,5.62-18.05,18.72-33.24,23.41-51.57,3.2-12.52,2.68-26.8,6.81-38.64l6.81,2.17s51.31,18.88,42.07,70.35c-2.52,14.06-9.94,26.52-13.42,36.23-7.47,14.28,1.1,25.79-6.49,24.62,0,0-4.8-3.06-9.64-3.93-11.67-2.11-24.69,15.7-29.08,39.79-4.41,24.09,2.99,41.35,13.15,47.46,12.41,7.44,19.12,3.64,23.52,4.21,2.91,3.09,2.27,6.04-5.92,14.04-11.22,10.95,2.01,33.33-11.91,66.19Z"/>
                <g>
                  <polygon class="cls-6" points="177.9 394.68 133.57 380.57 231.21 112.81 253.33 119.85 177.9 394.68"/>
                  <path class="cls-7" d="m177.9,394.68l-22.06-7.02c.31-1.71.71-3.36.98-4.9,2.72-15.9,7.61-31.41,14.47-46.02,4.29-9.09,9.35-17.86,12.6-27.36,5.58-16.24,5.61-33.83,9.24-50.61,5.09-23.57,17.06-44.96,26.36-67.21,8.06-19.24,14.13-39.28,18.13-59.74.9-4.57,1.75-9.34,4.48-13.12.47-.69,1.03-1.32,1.67-1.89l9.56,3.04-75.44,274.82Z"/>
                  <rect class="cls-2" x="147.99" y="365.39" width="13.09" height="51.98" transform="translate(-265.28 419.9) rotate(-72.34)"/>
                  <rect class="cls-7" x="150.61" y="368.12" width="7.86" height="46.5" transform="translate(-265.28 419.9) rotate(-72.34)"/>
                  <rect class="cls-7" x="128.27" y="432.91" width="7.86" height="57.22" transform="translate(-347.68 447.49) rotate(-72.34)"/>
                  <g>
                    <line class="cls-3" x1="250.13" y1="122.81" x2="130.76" y2="514.97"/>
                    <line class="cls-3" x1="244.43" y1="121" x2="121.61" y2="512.06"/>
                    <line class="cls-3" x1="232.19" y1="117.1" x2="100.32" y2="505.28"/>
                    <line class="cls-3" x1="237.14" y1="118.68" x2="109.77" y2="508.29"/>
                  </g>
                </g>
                <path class="cls-7" d="m183.81,506.11s-3.4,3.68-.41,6.85c0,0-4.3-3.78-3.66-13.82,1.25-19.43,16.26-64.63-4.81-72.78,0,0-9.14-3.58-12.93,7.1-.1.19-.22.37-.32.57-1.54,3.5-.3,7.44,2.77,8.79,3.07,1.35,6.81-.39,8.35-3.9,1.09-2.48.76-5.16-.59-7,.35-.08.76.01,1.23.39,10.71,8.55,2.96,29.05-1.23,56.68-4.21,27.7,12.54,33.43,17.44,26.72,4.9-6.71.08-14.58-5.83-9.59Z"/>
                <path class="cls-7" d="m62.4,467.45s.65,4.97-3.62,5.83c0,0,5.69-.6,10.97-9.16,10.22-16.58,24.09-62.14,46-56.61,0,0,9.53,2.36,6.45,13.27-.03.22-.03.43-.08.65-.77,3.75-4.05,6.24-7.34,5.57-3.28-.67-5.33-4.26-4.56-8.01.55-2.65,2.36-4.65,4.53-5.37-.25-.27-.63-.43-1.23-.39-13.67.79-19.21,22-31.76,46.96-12.59,25.04-29.56,20.03-29.68,11.72-.12-8.31,8.36-11.94,10.31-4.45Z"/>
                <polygon class="cls-7" points="85.09 602.63 90 604.19 46.84 734.77 45.18 734.24 85.09 602.63"/>
                <path class="cls-7" d="m82.71,606.48l7.36,2.34c8.27-19.43,17.32-40.63,20.79-48.55,10.12-23.17,36.35-40.07,36.35-40.07l-62.77-19.98s12.61,28.31,8.57,54.05c-1.8,11.49-6.19,32.88-10.3,52.21Z"/>
              </g>
              <rect class="cls-7" x="42.6" y="726.85" width="10.03" height="5.8" transform="translate(-662.19 553.75) rotate(-72.34)"/>
            </g>
            <g>
              <g>
                <polygon class="cls-7" points="135.47 160.77 126.61 166.21 123.74 156.63 133.36 153.74 135.47 160.77"/>
                <polygon class="cls-7" points="240.81 511.5 231.19 514.38 228.32 504.8 238.98 505.39 240.81 511.5"/>
                <rect class="cls-7" x="180.37" y="129.85" width="3.54" height="384.51" transform="translate(-84.86 65.9) rotate(-16.69)"/>
                <rect class="cls-7" x="126.93" y="164.1" width="2.7" height="5.96" transform="translate(-42.67 44) rotate(-16.73)"/>
              </g>
              <line class="cls-1" x1="126.34" y1="163.51" x2="230.3" y2="509.96"/>
            </g>
          </g>
          <rect class="cls-7" x="239.11" y="105.32" width="4.62" height="26.32" transform="translate(55.28 312.57) rotate(-72.34)"/>
        </g>
      </g>
    </g>
  </g>
</svg>