<svg xmlns="http://www.w3.org/2000/svg" width="58" height="48" viewBox="0 0 58 48"><defs><style>.a{fill:#69ffd7;}.b{fill:#ecc6ee;}.c{fill:#1c1a1a;}</style></defs><g transform="translate(-879 -1343)"><g transform="translate(0 163)"><path class="a" d="M24,1a23.006,23.006,0,0,0-8.952,44.193A22.855,22.855,0,0,0,24,47H34A23.006,23.006,0,0,0,42.952,2.807,22.855,22.855,0,0,0,34,1H24m0-1H34a24,24,0,0,1,0,48H24A24,24,0,0,1,24,0Z" transform="translate(879 1180)"/><g transform="translate(0 678)"><path class="b" d="M0,8.5A1.5,1.5,0,0,1-1.5,7V0A1.5,1.5,0,0,1,0-1.5,1.5,1.5,0,0,1,1.5,0V7A1.5,1.5,0,0,1,0,8.5Z" transform="translate(900 528.5)"/><path class="b" d="M0,4.5A1.5,1.5,0,0,1-1.5,3V0A1.5,1.5,0,0,1,0-1.5,1.5,1.5,0,0,1,1.5,0V3A1.5,1.5,0,0,1,0,4.5Z" transform="translate(895 532.5)"/><path class="b" d="M0,13.5A1.5,1.5,0,0,1-1.5,12V0A1.5,1.5,0,0,1,0-1.5,1.5,1.5,0,0,1,1.5,0V12A1.5,1.5,0,0,1,0,13.5Z" transform="translate(905 523.5)"/><path class="b" d="M0,17.5A1.5,1.5,0,0,1-1.5,16V0A1.5,1.5,0,0,1,0-1.5,1.5,1.5,0,0,1,1.5,0V16A1.5,1.5,0,0,1,0,17.5Z" transform="translate(910 519.5)"/><path class="b" d="M0,20.5A1.5,1.5,0,0,1-1.5,19V0A1.5,1.5,0,0,1,0-1.5,1.5,1.5,0,0,1,1.5,0V19A1.5,1.5,0,0,1,0,20.5Z" transform="translate(915 516.5)"/><path class="b" d="M0,23.5A1.5,1.5,0,0,1-1.5,22V0A1.5,1.5,0,0,1,0-1.5,1.5,1.5,0,0,1,1.5,0V22A1.5,1.5,0,0,1,0,23.5Z" transform="translate(920 513.5)"/></g></g><path class="c" d="M0,18.5a1.5,1.5,0,0,1-1.242-.657,1.5,1.5,0,0,1,.4-2.084l25-17a1.5,1.5,0,0,1,2.084.4,1.5,1.5,0,0,1-.4,2.084l-25,17A1.493,1.493,0,0,1,0,18.5Z" transform="translate(895.5 1359.5)"/></g></svg>